<svg width="16" height="16" viewBox="0 0 16 16" fill="none" xmlns="http://www.w3.org/2000/svg">
<circle cx="8" cy="8" r="7.75" stroke="#C770F0" stroke-width="0.5"/>
<path d="M3.7959 8.88037C2.75065 8.57992 1.98893 8.21175 1.51074 7.77588C1.03678 7.33577 0.799805 6.79411 0.799805 6.15088C0.799805 5.42301 1.08968 4.8221 1.66943 4.34814C2.25342 3.86995 3.0109 3.63086 3.94189 3.63086C4.57666 3.63086 5.1416 3.75358 5.63672 3.99902C6.13607 4.24447 6.52116 4.58301 6.79199 5.01465C7.06706 5.44629 7.20459 5.91813 7.20459 6.43018H5.97949C5.97949 5.87158 5.80176 5.43359 5.44629 5.11621C5.09082 4.7946 4.58936 4.63379 3.94189 4.63379C3.34098 4.63379 2.87126 4.76709 2.53271 5.03369C2.1984 5.29606 2.03125 5.66211 2.03125 6.13184C2.03125 6.50846 2.18994 6.82796 2.50732 7.09033C2.82894 7.34847 3.37272 7.58545 4.13867 7.80127C4.90885 8.01709 5.50977 8.25618 5.94141 8.51855C6.37728 8.77669 6.69889 9.07926 6.90625 9.42627C7.11784 9.77327 7.22363 10.1816 7.22363 10.6514C7.22363 11.4004 6.93164 12.0013 6.34766 12.4541C5.76367 12.9027 4.98291 13.127 4.00537 13.127C3.37061 13.127 2.77816 13.0063 2.22803 12.7651C1.6779 12.5197 1.2526 12.1854 0.952148 11.7622C0.655924 11.339 0.507812 10.8587 0.507812 10.3213H1.73291C1.73291 10.8799 1.93815 11.3221 2.34863 11.6479C2.76335 11.9696 3.31559 12.1304 4.00537 12.1304C4.6486 12.1304 5.1416 11.9992 5.48438 11.7368C5.82715 11.4744 5.99854 11.1169 5.99854 10.6641C5.99854 10.2113 5.83984 9.86214 5.52246 9.6167C5.20508 9.36702 4.62956 9.12158 3.7959 8.88037ZM10.0103 9.38184V13H8.7915V3.75781H12.2002C13.2116 3.75781 14.0029 4.01595 14.5742 4.53223C15.1497 5.0485 15.4375 5.73193 15.4375 6.58252C15.4375 7.47965 15.1561 8.17155 14.5933 8.6582C14.0347 9.14062 13.2327 9.38184 12.1875 9.38184H10.0103ZM10.0103 8.38525H12.2002C12.8519 8.38525 13.3512 8.23291 13.6982 7.92822C14.0452 7.6193 14.2188 7.17497 14.2188 6.59521C14.2188 6.04508 14.0452 5.60498 13.6982 5.2749C13.3512 4.94482 12.8752 4.77344 12.27 4.76074H10.0103V8.38525Z" fill="#C770F0"/>
</svg>
