<svg width="864.67004" height="685.07844" xmlns="http://www.w3.org/2000/svg" data-name="Layer 1">

 <g>
  <title>Layer 1</title>
  <path id="svg_1" fill="#f2f2f2" d="m101.30611,515.33922a3.61324,3.61324 0 0 1 -2.61865,-6.26263c0.09111,-0.36213 0.15647,-0.62217 0.24758,-0.9843q-0.0489,-0.11821 -0.09838,-0.23627a9.7031,9.7031 0 0 0 -17.89848,0.06652c-2.92739,7.05051 -6.65447,14.11306 -7.57217,21.56779a28.7057,28.7057 0 0 0 0.50391,9.87235a115.08618,115.08618 0 0 1 -10.4689,-47.7989a111.07965,111.07965 0 0 1 0.689,-12.392q0.5708,-5.05968 1.58377,-10.04731a116.41931,116.41931 0 0 1 23.087,-49.34152a30.98252,30.98252 0 0 0 12.88556,-13.36892a23.63367,23.63367 0 0 0 2.14933,-6.45822c-0.62729,0.08228 -1.26489,0.1337 -1.89218,0.1748c-0.19542,0.01023 -0.40108,0.02054 -0.5965,0.03086l-0.0737,0.0033a3.57989,3.57989 0 0 1 -2.94009,-5.83225q0.40627,-0.5 0.813,-0.99948c0.4114,-0.51422 0.833,-1.01813 1.24434,-1.53227a1.78518,1.78518 0 0 0 0.13369,-0.15433c0.47313,-0.58619 0.94609,-1.16206 1.41921,-1.74825a10.35184,10.35184 0 0 0 -3.39366,-3.28044c-4.74083,-2.77661 -11.28133,-0.85357 -14.70586,3.43477c-3.43476,4.28825 -4.0826,10.30437 -2.88976,15.66218a41.48513,41.48513 0 0 0 5.73842,12.793c-0.25715,0.32911 -0.52454,0.64791 -0.78161,0.977a117.172,117.172 0 0 0 -12.22973,19.37481a48.70929,48.70929 0 0 0 -2.908,-22.62447c-2.78347,-6.71479 -8.00064,-12.37 -12.595,-18.17495c-5.51857,-6.9726 -16.83488,-3.92959 -17.80713,4.90927q-0.01412,0.12837 -0.02757,0.25666q1.02363,0.57749 2.004,1.22585a4.9011,4.9011 0 0 1 -1.976,8.91908l-0.09994,0.01544a48.767,48.767 0 0 0 1.28544,7.29124a50.20986,50.20986 0 0 0 24.99983,31.46836c0.40108,0.20566 0.79193,0.41132 1.193,0.60674a119.59776,119.59776 0 0 0 -6.43767,30.296a113.43513,113.43513 0 0 0 0.08228,18.31541l-0.03086,-0.216a29.97411,29.97411 0 0 0 -10.23241,-17.3076c-7.87438,-6.46853 -18.9994,-8.8505 -27.49446,-14.04993a5.62528,5.62528 0 0 0 -8.61571,5.47251q0.01709,0.11352 0.03474,0.227a32.92807,32.92807 0 0 1 3.69184,1.779q1.02362,0.57761 2.004,1.22586a4.90115,4.90115 0 0 1 -1.976,8.91916l-0.1,0.01535c-0.072,0.01032 -0.13369,0.02063 -0.20557,0.03095a48.80772,48.80772 0 0 0 8.97767,14.05786a50.25445,50.25445 0 0 0 36.44572,15.99129l0.01032,0a119.5619,119.5619 0 0 0 8.03167,23.447l28.69167,0c0.10291,-0.3188 0.19542,-0.64792 0.288,-0.96672a32.59875,32.59875 0 0 1 -7.93916,-0.473c2.12878,-2.61213 4.25747,-5.24482 6.38625,-7.85688a1.7799,1.7799 0 0 0 0.1337,-0.15424c1.07978,-1.33685 2.16987,-2.66347 3.24965,-4.00032l0.00058,-0.00165a47.75037,47.75037 0 0 0 -1.39911,-12.16396l-0.00091,-0.0006z"/>
  <path id="svg_2" fill="#ccc" d="m439.67002,541.34436a1.18647,1.18647 0 0 1 -1.19006,1.19l-437.28994,0a1.19,1.19 0 0 1 0,-2.38l437.29,0a1.18651,1.18651 0 0 1 1.19,1.19z"/>
  <path id="svg_3" fill="#ffb6b6" d="m228.98226,388.48358a11.58313,11.58313 0 0 0 -14.25915,10.5897l-24.99881,8.7l1.58175,16.48119l35.13061,-12.78194a11.6459,11.6459 0 0 0 2.5456,-22.989l0,0.00005z"/>
  <path id="svg_4" fill="#201f2b" d="m188.24023,436.38712c-9.94014,6.92808 -27.452,10.47225 -51.28551,10.30976a9.52967,9.52967 0 0 1 -7.02647,-3.064c-6.37724,-6.64084 -6.12819,-21.79985 -6.0884,-23.26407l-6.99,-26.34246c-0.14985,-0.40284 -4.01885,-11.21165 -0.0827,-18.75948a12.369,12.369 0 0 1 8.22578,-6.26865c14.78244,-3.92266 28.67846,35.64678 30.44432,40.87537l20.745,-3.53279l14.32637,-0.58923l14.57563,-8.0454l8.20635,19.64009l-20.30842,14.84114a25.664,25.664 0 0 1 -4.74195,4.19972z"/>
  <polygon id="svg_5" fill="#ffb6b6" points="228.268 654.202 243.549 654.916 253.575 596.315 231.022 595.261 228.268 654.202"/>
  <path id="svg_6" fill="#201f2b" d="m224.83102,646.48622l24.22343,-0.31212l-0.484,10.34948l22.224,16.935a6.47174,6.47174 0 0 1 -4.22455,11.61271l-28.75863,-1.3449l-4.47824,-10.469l-2.41421,10.14671l-10.84315,-0.50708l4.75535,-36.4108z"/>
  <polygon id="svg_7" fill="#ffb6b6" points="387.812 528.378 393.379 514.129 341.068 485.876 314.642 502.486 387.812 528.378"/>
  <path id="svg_8" fill="#201f2b" d="m379.4022,529.16528l7.45657,-23.04933l9.65027,3.77071l23.15675,-15.63544a6.47174,6.47174 0 0 1 9.65,7.71881l-10.47789,26.81569l-11.35162,0.89228l8.84044,5.53451l-3.95057,10.11059l-32.97395,-16.15782z"/>
  <path id="svg_9" fill="#201f2b" d="m87.29585,485.97045s6.34645,40.51574 36.34645,43.51574s57.65355,-10.51574 57.65355,-10.51574l84,-25.87006s89.34645,25.3858 104.34645,29.3858c0,0 10.34646,-23.48425 10,-25c-3.19036,-13.95785 -7.34645,-4.51574 -7.34645,-4.51574l-95,-42s-15,-4 -41,7s-95.65355,37.51577 -95.65355,37.51577l-53.34645,-9.51577z"/>
  <path id="svg_10" fill="#201f2b" d="m87.6423,483.48622s-5.00318,48.53652 24.22042,55.95146c27.77958,7.04854 66.09816,-0.182 66.09816,-0.182l45.68142,-4.76945s2,58.69551 2,87.69551a220.2581,220.2581 0 0 0 28,2c2,0 2.13267,-1.04791 2.13267,-1.04791l3.8727,-101.44374a31.65753,31.65753 0 0 0 -32.75435,-33.585q-3.23463,0.12342 -6.78643,0.45826c-28.10229,2.69471 -62.99044,-3.0339 -62.99044,-3.0339l-69.47415,-2.04323z"/>
  <path id="svg_11" fill="#201f2b" d="m168.70056,413.07459s11.86391,71.7439 3.84632,77.471s-19.01257,5.74952 -19.01257,5.74952l-2.55664,-39.61253l17.72289,-43.60799z"/>
  <path id="svg_12" fill="#201f2b" d="m148.91347,324.96322l15.86267,15.07334a46.75218,46.75218 0 0 1 9.19974,55.60365l-7.58263,14.4597l-17.47978,-85.13669z"/>
  <path id="svg_13" fill="#da7aff" d="m145.3662,327.49769l21.49382,24.48205a34.35461,34.35461 0 0 1 8.36232,19.19756l0,0a34.35478,34.35478 0 0 1 -0.39141,9.68345l-8.10023,44.03424l-6.0884,63.59123s-47.00333,14.2416 -51.81437,-7.74972s36.53827,-153.23881 36.53827,-153.23881z"/>
  <path id="svg_14" fill="#1e1d28" d="m125.19091,494.46266c-30.89816,-5.14908 -38.46709,-6.17146 -38.9385,-6.35153l-0.4723,-0.18021l3.097,-18.58405l13.0777,-32.13493c0.8493,-10.51166 6.35756,-24.75431 3.20637,-36.19425c-9.16076,-33.257 5.7226,-80.25293 12.52893,-83.85312l18.86916,-12.37l6.62355,6.07267l11.48449,16.07698c9.44908,42.09125 15.97518,81.32286 15.65782,83.72078l-5.832,41.20669l-6.872,15.80646c-20.84771,10.05907 -6.82895,31.05089 -32.43022,26.78451z"/>
  <path id="svg_15" fill="#e6e6e6" d="m181.13122,464.23246l48.51412,-12.97988l4.2716,-1.01288l3.04581,-0.72337l3.54955,-0.83929l0.02836,-0.00653a2.01286,2.01286 0 0 1 1.507,0.25082l18.01367,21.59765a1.59,1.59 0 0 1 0.42377,0.3806a0.71425,0.71425 0 0 1 0.12815,0.13484a2.05595,2.05595 0 0 1 -1.15876,3.21l-72.373,16.65523a2.03879,2.03879 0 0 1 -2.04911,-0.72369l-0.73444,-0.95155l-4.005,-19.28585l-0.28495,-2.50426a1.99609,1.99609 0 0 1 -0.37549,-0.78762a2.02751,2.02751 0 0 1 1.49872,-2.41422z"/>
  <path id="svg_16" opacity="0.17" d="m184.29758,489.22272l0.73876,0.95465a2.03761,2.03761 0 0 0 2.04387,0.72353l72.37552,-16.6558a2.05225,2.05225 0 0 0 1.15648,-3.20762a0.61137,0.61137 0 0 0 -0.12633,-0.13526l-76.1883,18.3205z"/>
  <path id="svg_17" fill="#e6e6e6" d="m240.15111,448.53605l-1.3093,-92.26487a2.10556,2.10556 0 0 1 0.46692,-1.54178l9.2739,-19.30128l0.96329,-1.17042a2.13224,2.13224 0 0 1 1.42522,-0.7538l2.01855,-0.18813a2.10671,2.10671 0 0 1 2.30267,1.8905l0,0l1.81786,97.62365l0.00163,0.00711l0.90065,9.3997l1.06711,11.1618l0.00326,0.0142l1.66577,17.36642a2.06171,2.06171 0 0 1 -0.557,1.63723a2.09148,2.09148 0 0 1 -1.5845,0.67839l-1.31342,-0.02644a2.13954,2.13954 0 0 1 -1.36383,-0.53779l-0.73463,-0.66014l-0.34031,-0.31016l-14.00732,-21.653a2.09359,2.09359 0 0 1 -0.69652,-1.37119z"/>
  <path id="svg_18" opacity="0.17" d="m248.58602,335.42804l6.26741,136.13588l0.34267,0.306l0.73219,0.65824a2.1323,2.1323 0 0 0 1.36433,0.53835l1.31527,0.02643a2.11527,2.11527 0 0 0 2.1413,-2.31406l-5.45934,-135.56966a2.1085,2.1085 0 0 0 -2.29913,-1.89713l-2.02255,0.19377a2.07831,2.07831 0 0 0 -1.41837,0.75419l-0.96378,1.16799z"/>
  <polygon id="svg_19" fill="#da7aff" points="249.113 340.929 240.632 361.864 241.681 424.491 250.863 437.77 249.113 340.929"/>
  <path id="svg_20" fill="#2f2e41" d="m186.72233,463.67996a1.8207,1.8207 0 0 0 -1.252,2.24889l3.73635,15.57119l3.50092,-0.99685l-3.73636,-15.5712a1.8207,1.8207 0 0 0 -2.24891,-1.25203z"/>
  <path id="svg_21" fill="#2f2e41" d="m193.72416,461.68622a1.82069,1.82069 0 0 0 -1.252,2.24888l0.79748,2.80074l3.50092,-0.99686l-0.79749,-2.80073a1.82068,1.82068 0 0 0 -2.24891,-1.25203z"/>
  <path id="svg_22" fill="#2f2e41" d="m200.72602,459.69253a1.82069,1.82069 0 0 0 -1.252,2.24889l0.79748,2.80073l3.50092,-0.99686l-0.79749,-2.80073a1.8207,1.8207 0 0 0 -2.24891,-1.25203z"/>
  <path id="svg_23" fill="#2f2e41" d="m207.72782,457.69882a1.82068,1.82068 0 0 0 -1.252,2.24888l0.79748,2.80074l3.50092,-0.99686l-0.79749,-2.80073a1.82069,1.82069 0 0 0 -2.24891,-1.25203z"/>
  <path id="svg_24" fill="#2f2e41" d="m214.72965,455.7051a1.82069,1.82069 0 0 0 -1.252,2.24889l0.79748,2.80073l3.50092,-0.99686l-0.79749,-2.80073a1.8207,1.8207 0 0 0 -2.24891,-1.25203z"/>
  <path id="svg_25" fill="#2f2e41" d="m221.73148,453.71139a1.82069,1.82069 0 0 0 -1.252,2.24889l0.79748,2.80073l3.50092,-0.99686l-0.79749,-2.80073a1.82069,1.82069 0 0 0 -2.24891,-1.25203z"/>
  <path id="svg_26" fill="#2f2e41" d="m228.7333,451.71768a1.82068,1.82068 0 0 0 -1.252,2.24888l0.79748,2.80073l3.50092,-0.99685l-0.79749,-2.80074a1.82069,1.82069 0 0 0 -2.24891,-1.25202z"/>
  <path id="svg_27" fill="#2f2e41" d="m235.73513,449.72396a1.82069,1.82069 0 0 0 -1.252,2.24889l0.79748,2.80073l3.50092,-0.99686l-0.79749,-2.80073a1.8207,1.8207 0 0 0 -2.24891,-1.25203z"/>
  <path id="svg_28" fill="#2f2e41" d="m195.19359,468.07148a1.8207,1.8207 0 0 0 -1.252,2.24889l0.79749,2.80073l3.50091,-0.99686l-0.79748,-2.80073a1.8207,1.8207 0 0 0 -2.24892,-1.25203z"/>
  <path id="svg_29" fill="#2f2e41" d="m202.19542,466.07776a1.82071,1.82071 0 0 0 -1.252,2.24889l0.79749,2.80073l3.50091,-0.99685l-0.79748,-2.80074a1.82071,1.82071 0 0 0 -2.24892,-1.25203z"/>
  <path id="svg_30" fill="#2f2e41" d="m209.19725,464.08405a1.8207,1.8207 0 0 0 -1.252,2.24889l0.79749,2.80073l3.50091,-0.99686l-0.79748,-2.80073a1.8207,1.8207 0 0 0 -2.24892,-1.25203z"/>
  <path id="svg_31" fill="#2f2e41" d="m216.19908,462.09034a1.82069,1.82069 0 0 0 -1.25206,2.24888l0.79749,2.80073l3.50091,-0.99685l-0.79748,-2.80074a1.8207,1.8207 0 0 0 -2.24886,-1.25202z"/>
  <path id="svg_32" fill="#2f2e41" d="m223.20091,460.09662a1.8207,1.8207 0 0 0 -1.252,2.24889l0.79749,2.80073l3.50091,-0.99686l-0.79748,-2.80073a1.8207,1.8207 0 0 0 -2.24892,-1.25203z"/>
  <path id="svg_33" fill="#2f2e41" d="m230.20274,458.10291a1.82069,1.82069 0 0 0 -1.252,2.24888l0.79749,2.80073l3.50091,-0.99685l-0.79748,-2.80074a1.8207,1.8207 0 0 0 -2.24892,-1.25202z"/>
  <path id="svg_34" fill="#2f2e41" d="m237.20457,456.10922a1.8207,1.8207 0 0 0 -1.252,2.24889l0.79749,2.80073l3.50091,-0.99686l-0.79748,-2.80073a1.8207,1.8207 0 0 0 -2.24892,-1.25203z"/>
  <path id="svg_35" fill="#2f2e41" d="m196.66302,474.45671a1.82069,1.82069 0 0 0 -1.252,2.24889l0.79748,2.80073l3.50092,-0.99686l-0.79749,-2.80073a1.82069,1.82069 0 0 0 -2.24891,-1.25203z"/>
  <path id="svg_36" fill="#2f2e41" d="m203.66486,472.463a1.82068,1.82068 0 0 0 -1.252,2.24888l0.79748,2.80073l3.50092,-0.99685l-0.79749,-2.80074a1.82068,1.82068 0 0 0 -2.24891,-1.25202z"/>
  <path id="svg_37" fill="#2f2e41" d="m210.66669,470.46928a1.82069,1.82069 0 0 0 -1.252,2.24889l0.79748,2.80073l3.50092,-0.99686l-0.79749,-2.80073a1.82069,1.82069 0 0 0 -2.24891,-1.25203z"/>
  <path id="svg_38" fill="#2f2e41" d="m217.66852,468.47557a1.82068,1.82068 0 0 0 -1.252,2.24888l0.79748,2.80073l3.50092,-0.99685l-0.79749,-2.80073a1.82068,1.82068 0 0 0 -2.24891,-1.25203z"/>
  <path id="svg_39" fill="#2f2e41" d="m224.67035,466.48185a1.82069,1.82069 0 0 0 -1.252,2.24889l0.79748,2.80073l3.50092,-0.99686l-0.79749,-2.80073a1.82069,1.82069 0 0 0 -2.24891,-1.25203z"/>
  <path id="svg_40" fill="#2f2e41" d="m231.67217,464.48814a1.82068,1.82068 0 0 0 -1.252,2.24888l0.79748,2.80074l3.50092,-0.99686l-0.79755,-2.80068a1.82069,1.82069 0 0 0 -2.24885,-1.25208z"/>
  <path id="svg_41" fill="#2f2e41" d="m238.67402,462.49442a1.8207,1.8207 0 0 0 -1.252,2.24889l0.79748,2.80073l3.50092,-0.99686l-0.79749,-2.80073a1.8207,1.8207 0 0 0 -2.24891,-1.25203z"/>
  <path id="svg_42" fill="#ffb6b6" d="m218.1027,450.4107a11.58313,11.58313 0 0 0 -17.65537,-1.93733l-24.24207,-10.628l-10.05163,13.15661l34.44529,14.52794a11.6459,11.6459 0 0 0 17.50378,-15.11922z"/>
  <path id="svg_43" fill="#21202d" d="m155.65338,457.80973c-11.99879,-1.68336 -27.2458,-10.99767 -44.6051,-27.32908a9.52968,9.52968 0 0 1 -3.06614,-7.02556c-0.15716,-9.20571 10.33705,-20.14779 11.36222,-21.194l12.79536,-24.06375c0.16419,-0.39722 4.68073,-10.95185 12.70019,-13.80688a12.369,12.369 0 0 1 10.29362,1.00055c13.50379,7.18022 -3.22692,45.637 -5.48922,50.67072l17.6091,11.52189l10.902,9.31336l16.15662,4.01759l-7.34461,19.97833l-24.98142,-2.936a25.66441,25.66441 0 0 1 -6.33262,-0.14717z"/>
  <ellipse id="svg_44" transform="rotate(-83.1677 -265.277 541.872)" fill="#ffb6b6" ry="30.11079" rx="30.78186" cy="921.54103" cx="51.80457"/>
  <path id="svg_45" fill="#201f2b" d="m71.0038,249.368c5.79189,-5.31738 9.15,-12.89056 14.01887,-19.13338c4.86892,-6.24286 12.66023,-11.41884 19.94129,-8.95792c5.01909,1.69649 8.45363,6.71628 9.86116,12.02267c1.40708,5.30628 1.11538,10.9372 0.81277,16.45154c1.22266,-11.26023 9.93752,-21.27414 20.5732,-23.63958c10.63488,-2.36551 22.36887,3.10034 27.69919,12.90294a15.69484,15.69484 0 0 1 20.74959,2.04538c5.12175,5.8139 5.222,15.72371 0.22012,21.75744s-14.42966,7.37516 -20.699,2.94525l-2.63127,1.89621c0.775,4.82582 -2.47246,10.02748 -7.03187,11.26284c-3.69716,1.00194 -8.64734,0.16834 -10.41039,3.711c-1.23206,2.47537 0.16092,5.442 1.75644,7.64879c1.59507,2.20668 3.52607,4.51944 3.41677,7.2955c-0.16437,4.1887 -4.8,6.58135 -8.80224,6.98968c-9.6506,0.9847 -19.55661,-4.61652 -23.97946,-13.559q-0.12783,-0.25866 -0.28293,-0.52123a36.55018,36.55018 0 0 1 -3.97488,-28.62341c0.53435,-1.88035 0.39818,-3.3429 -0.869,-3.9552c-5.47716,-2.64655 -21.97469,-0.44592 -27.264,2.69569c-5.28975,3.14156 -9.75857,7.60245 -14.89862,11.0056c-5.14045,3.40315 -11.45189,5.74706 -17.24645,3.95835c-4.64086,-1.43258 -8.26433,-5.36057 -10.48144,-9.84053c-2.21671,-4.47987 -3.19887,-9.5099 -4.02172,-14.49037c9.765,7.31761 24.42733,6.50096 33.54387,-1.86826z"/>
  <path id="svg_46" fill="#cacaca" d="m862.90283,34.48422l-454.29301,0a1.807,1.807 0 0 1 0,-3.61318l454.293,0a1.807,1.807 0 0 1 0,3.61318l0.00001,0z"/>
  <ellipse id="svg_47" fill="#201f2b" ry="10.82345" rx="10.58751" cy="10.82345" cx="439.53414"/>
  <ellipse id="svg_48" fill="#201f2b" ry="10.82345" rx="10.58751" cy="10.82345" cx="476.10916"/>
  <ellipse id="svg_49" fill="#201f2b" ry="10.82345" rx="10.58751" cy="10.82345" cx="512.68417"/>
  <path id="svg_50" fill="#201f2b" d="m840.88157,2.6827l-25.981,0a1.96762,1.96762 0 0 0 0,3.93446l25.981,0a1.96762,1.96762 0 0 0 0,-3.93446z"/>
  <path id="svg_51" fill="#201f2b" d="m840.88157,10.06707l-25.981,0a1.96762,1.96762 0 0 0 0,3.93446l25.981,0a1.96762,1.96762 0 0 0 0,-3.93446z"/>
  <path id="svg_52" fill="#201f2b" d="m840.88157,17.44175l-25.981,0a1.96761,1.96761 0 0 0 0,3.93445l25.981,0a1.96761,1.96761 0 0 0 0,-3.93445z"/>
  <path id="svg_53" fill="#2f2e41" d="m66.45031,449.70622l0.0151,-0.02038l-0.0151,0.04093l0,-0.02055z"/>
  <circle id="svg_54" fill="#e6e7e8" r="13.08937" cy="91.79521" cx="690.52285"/>
  <path id="svg_55" fill="#e6e7e8" d="m800.84552,120.77962l-119.5141,0a3.89775,3.89775 0 1 1 0,-7.79549l119.5141,0a3.89775,3.89775 0 1 1 0,7.79549z"/>
  <path id="svg_56" fill="#e6e7e8" d="m711.01509,136.18158l-29.68367,0a3.89794,3.89794 0 1 1 0,-7.79588l29.68367,0a3.89794,3.89794 0 0 1 0,7.79588z"/>
  <circle id="svg_57" fill="#e6e7e8" r="13.08937" cy="296.09983" cx="690.52285"/>
  <path id="svg_58" fill="#e6e7e8" d="m800.84552,325.08422l-119.5141,0a3.89775,3.89775 0 1 1 0,-7.7955l119.5141,0a3.89775,3.89775 0 1 1 0,7.7955z"/>
  <path id="svg_59" fill="#e6e7e8" d="m711.01509,340.48622l-29.68367,0a3.89794,3.89794 0 1 1 0,-7.79588l29.68367,0a3.89794,3.89794 0 0 1 0,7.79588z"/>
  <circle id="svg_60" fill="#e6e7e8" r="13.08937" cy="265.09641" cx="479.85856"/>
  <path id="svg_61" fill="#e6e7e8" d="m590.18123,294.08082l-119.5141,0a3.89775,3.89775 0 1 1 0,-7.7955l119.5141,0a3.89775,3.89775 0 1 1 0,7.7955z"/>
  <path id="svg_62" fill="#e6e7e8" d="m500.3508,309.48277l-29.68367,0a3.89794,3.89794 0 1 1 0,-7.79588l29.68367,0a3.89794,3.89794 0 1 1 0,7.79588z"/>
  <circle id="svg_63" fill="#e6e7e8" r="13.08937" cy="186.24655" cx="690.52285"/>
  <path id="svg_64" fill="#e6e7e8" d="m800.84552,215.23096l-119.5141,0a3.89775,3.89775 0 1 1 0,-7.7955l119.5141,0a3.89775,3.89775 0 1 1 0,7.7955z"/>
  <path id="svg_65" fill="#e6e7e8" d="m753.14795,230.63291l-71.81653,0a3.89794,3.89794 0 1 1 0,-7.79588l71.81653,0a3.89794,3.89794 0 0 1 0,7.79588z"/>
  <path id="svg_66" fill="#e6e7e8" d="m733.13791,246.03486l-51.80649,0a3.89794,3.89794 0 1 1 0,-7.79588l51.80649,0a3.89794,3.89794 0 0 1 0,7.79588z"/>
  <path id="svg_67" fill="#da7aff" d="m571.1821,101.1881l0,137.42754a3.62474,3.62474 0 0 1 -3.61558,3.62055l-72.41087,0a88.84863,88.84863 0 0 1 -19.387,-26.08471c-0.31612,-0.63225 -0.61742,-1.26941 -0.90391,-1.91647a88.00529,88.00529 0 0 1 -7.82394,-30.12509c-0.05433,-0.64214 -0.09879,-1.27931 -0.12843,-1.92636c-0.09876,-1.65467 -0.14323,-3.33406 -0.14323,-5.01837a88.44,88.44 0 0 1 6.2384,-32.743c0.247,-0.64706 0.50874,-1.28917 0.78043,-1.92633a88.97582,88.97582 0 0 1 24.44484,-33.13317q0.94833,-0.80761 1.91647,-1.57071l0.14846,-0.11869a46.83728,46.83728 0 0 1 29.22575,-10.11566l38.043,0a3.62686,3.62686 0 0 1 3.61561,3.63047z"/>
  <path id="svg_68" opacity="0.2" d="m571.3748,144.42222l0,-1.92633l-32.2935,0l0,-44.93823l-1.92142,0l0,44.93823l-37.01055,0l0,-34.70388q-0.97057,0.76309 -1.91647,1.57071l0,33.13317l-24.44484,0c-0.27169,0.63716 -0.53346,1.27927 -0.78043,1.92633l25.22527,0l0,37.76134l-31.32044,0c0.02964,0.647 0.0741,1.28422 0.12843,1.92636l31.192,0l0,30.12509l-23.36806,0c0.28649,0.64706 0.58779,1.28422 0.90391,1.91647l22.46416,0l0,25.324l1.91647,0l0,-25.324l37.01055,0l0,25.324l1.92142,0l0,-25.324l32.2935,0l0,-1.91647l-32.2935,0a30.11907,30.11907 0 0 1 30.12506,-30.12509l2.16844,0l0,-1.92636l-32.2935,0l0,-37.76134l32.2935,0zm-34.21492,69.81279l-37.01055,0l0,-30.12509l37.01055,0l0,30.12509zm0,-32.05145l-37.01055,0l0,-0.75571a37.00806,37.00806 0 0 1 37.01055,-37.00563l0,37.76134z"/>
  <path id="svg_69" fill="#2f2e41" d="m567.73269,214.72034a3.77983,3.77983 0 0 1 -2.73939,-6.55137c0.09531,-0.37883 0.16368,-0.65086 0.259,-1.02968q-0.05115,-0.12367 -0.10291,-0.24717c-3.47986,-8.29769 -25.685,14.83335 -26.645,22.63179a30.029,30.029 0 0 0 0.52714,10.32752a120.39228,120.39228 0 0 1 -10.95162,-50.00275a116.20235,116.20235 0 0 1 0.72079,-12.96332q0.5971,-5.293 1.65679,-10.51055a121.78662,121.78662 0 0 1 24.1515,-51.61646c6.87378,0.38364 12.898,-0.66348 13.47967,-13.98532c0.10346,-2.36972 1.86112,-4.42157 2.24841,-6.756c-0.65621,0.08608 -1.32321,0.13986 -1.97942,0.18285c-0.20443,0.01071 -0.41957,0.0215 -0.624,0.03229l-0.0771,0.00345a3.74494,3.74494 0 0 1 -3.07565,-6.10115q0.425,-0.523 0.85054,-1.04556c0.43036,-0.53793 0.87143,-1.06508 1.30171,-1.60292a1.86841,1.86841 0 0 0 0.13986,-0.16144c0.49494,-0.61322 0.9897,-1.21564 1.48464,-1.82886a10.82906,10.82906 0 0 0 -3.55013,-3.43168c-4.95942,-2.90464 -11.80147,-0.89293 -15.38389,3.59312c-3.59313,4.486 -4.27083,10.77947 -3.023,16.38431a43.39764,43.39764 0 0 0 6.003,13.3828c-0.269,0.34429 -0.54872,0.67779 -0.81765,1.02208a122.57417,122.57417 0 0 0 -12.79359,20.26811c1.0163,-7.93864 -11.41159,-36.60795 -16.21777,-42.68052c-5.773,-7.29409 -17.61107,-4.11078 -18.62815,5.13561q-0.01476,0.13429 -0.02883,0.26849q1.07082,0.60411 2.09639,1.28238a5.12707,5.12707 0 0 1 -2.06712,9.3303l-0.10452,0.01614c-9.55573,13.64366 21.07745,49.15469 28.74517,41.18138a125.11185,125.11185 0 0 0 -6.73449,31.69282a118.66326,118.66326 0 0 0 0.08608,19.15987l-0.03231,-0.22593c-1.70368,-13.88233 -30.93134,-34.52259 -39.46631,-32.80332c-4.91675,0.99042 -9.75953,0.76526 -9.01293,5.72484q0.01788,0.11875 0.03635,0.2375a34.44529,34.44529 0 0 1 3.862,1.86106q1.07082,0.60423 2.09639,1.28237a5.12713,5.12713 0 0 1 -2.06713,9.33039l-0.10463,0.01606c-0.07528,0.01079 -0.13987,0.02157 -0.21507,0.03237c-4.34967,14.96631 27.90735,39.12 47.5177,31.4346l0.0108,0a125.07594,125.07594 0 0 0 8.402,24.52806l30.01454,0c0.10765,-0.3335 0.20443,-0.67779 0.30129,-1.01129a34.10189,34.10189 0 0 1 -8.3052,-0.49477c2.22693,-2.73257 4.45377,-5.48664 6.6807,-8.21913a1.86617,1.86617 0 0 0 0.13986,-0.16135c1.12956,-1.39849 2.26992,-2.78627 3.39948,-4.18476l0.00061,-0.00173a49.95245,49.95245 0 0 0 -1.46367,-12.725l-0.00093,-0.00053zm-34.37066,-67.613l0.0158,-0.02133l-0.0158,0.04282l0,-0.02149zm-6.64833,59.93237l-0.25821,-0.58084c0.01079,-0.41957 0.01079,-0.83915 0,-1.26942c0,-0.11845 -0.0215,-0.23673 -0.0215,-0.35509c0.09678,0.74228 0.18285,1.48465 0.29042,2.22693l-0.01071,-0.02158z"/>
 </g>
</svg>