<svg xmlns="http://www.w3.org/2000/svg" xmlns:xlink="http://www.w3.org/1999/xlink" width="419" height="741" viewBox="0 0 419 741">
  <defs>
    <linearGradient id="linear-gradient" x1="0.5" x2="0.5" y2="1" gradientUnits="objectBoundingBox">
      <stop offset="0" stop-color="#9a73a1"/>
      <stop offset="1" stop-color="#4d3a51"/>
    </linearGradient>
    <clipPath id="clip-Artboard_2">
      <rect width="419" height="741"/>
    </clipPath>
  </defs>
  <g id="Artboard_2" data-name="Artboard – 2" clip-path="url(#clip-Artboard_2)">
    <g id="wireframe-2" transform="translate(526 -134)">
      <g id="phone" transform="translate(-526 136)">
        <g id="outisde" transform="translate(8)" stroke="#4d3a51" stroke-width="3" fill="url(#linear-gradient)">
          <rect width="405" height="738" rx="52" stroke="none"/>
          <rect x="1.5" y="1.5" width="402" height="735" rx="50.5" fill="none"/>
        </g>
        <g id="btn-top" transform="translate(0 149)" stroke="#4d3a51" stroke-width="3" fill="url(#linear-gradient)">
          <path d="M7,0h4a0,0,0,0,1,0,0V56a0,0,0,0,1,0,0H7a7,7,0,0,1-7-7V7A7,7,0,0,1,7,0Z" stroke="none"/>
          <path d="M7,1.5H9.5a0,0,0,0,1,0,0v53a0,0,0,0,1,0,0H7A5.5,5.5,0,0,1,1.5,49V7A5.5,5.5,0,0,1,7,1.5Z" fill="none"/>
        </g>
        <g id="btn-bottom" transform="translate(0 218)" stroke="#4d3a51" stroke-width="3" fill="url(#linear-gradient)">
          <path d="M7,0h4a0,0,0,0,1,0,0V56a0,0,0,0,1,0,0H7a7,7,0,0,1-7-7V7A7,7,0,0,1,7,0Z" stroke="none"/>
          <path d="M7,1.5H9.5a0,0,0,0,1,0,0v53a0,0,0,0,1,0,0H7A5.5,5.5,0,0,1,1.5,49V7A5.5,5.5,0,0,1,7,1.5Z" fill="none"/>
        </g>
        <g id="btn-right" transform="translate(410 167)" stroke="#4d3a51" stroke-width="3" fill="url(#linear-gradient)">
          <rect width="10" height="90" stroke="none"/>
          <rect x="1.5" y="1.5" width="7" height="87" fill="none"/>
        </g>
        <line id="Line_10" data-name="Line 10" x2="54" transform="translate(184.5 15.5)" fill="none" stroke="#050505" stroke-linecap="round" stroke-width="3"/>
        <rect id="inside" width="375" height="681.366" rx="21" transform="translate(23 26.817)" fill="#fff"/>
      </g>
      <g id="Group_9" data-name="Group 9" transform="translate(-503 177)">
        <g id="Nav" transform="translate(28 12)">
          <text id="RO_S_BAGELS" data-name="RO&apos;S BAGELS" transform="translate(0 17)" font-size="16" font-family="Roboto-Bold, Roboto" font-weight="700"><tspan x="0" y="0">RO&apos;S BAGELS</tspan></text>
          <g id="Burger" transform="translate(299 2.376)">
            <line id="Line_3" data-name="Line 3" x2="28" fill="none" stroke="#707070" stroke-linecap="round" stroke-width="3"/>
            <line id="Line_4" data-name="Line 4" x2="28" transform="translate(0 18.624)" fill="none" stroke="#707070" stroke-linecap="round" stroke-width="3"/>
            <line id="Line_5" data-name="Line 5" x2="28" transform="translate(0 9.312)" fill="none" stroke="#707070" stroke-linecap="round" stroke-width="3"/>
          </g>
        </g>
        <g id="Footer" transform="translate(0 592)">
          <path id="Rectangle_5" data-name="Rectangle 5" d="M8,0H367.5a8,8,0,0,1,8,8V39a20,20,0,0,1-20,20H20A20,20,0,0,1,0,39V8A8,8,0,0,1,8,0Z" transform="translate(0 16)" fill="#afecfe"/>
          <g id="icon-cart" transform="translate(159.25)">
            <g id="Ellipse_2" data-name="Ellipse 2" fill="#fff" stroke="#afecfe" stroke-width="1">
              <circle cx="28.5" cy="28.5" r="28.5" stroke="none"/>
              <circle cx="28.5" cy="28.5" r="28" fill="none"/>
            </g>
            <path id="Icon_awesome-shopping-cart" data-name="Icon awesome-shopping-cart" d="M30.239,17.253l2.707-11.91a1.374,1.374,0,0,0-1.34-1.679H9.116L8.591,1.1A1.374,1.374,0,0,0,7.245,0H1.374A1.374,1.374,0,0,0,0,1.374V2.29A1.374,1.374,0,0,0,1.374,3.665h4L9.4,23.329a3.207,3.207,0,1,0,3.839.49h12a3.206,3.206,0,1,0,3.642-.6l.316-1.39a1.374,1.374,0,0,0-1.34-1.679H12.489l-.375-1.832H28.9A1.374,1.374,0,0,0,30.239,17.253Z" transform="translate(10.01 13.842)" fill="#707070"/>
          </g>
          <g id="icons" transform="translate(22 23)">
            <g id="icon-home" transform="translate(0 4.765)">
              <path id="Icon_material-home" data-name="Icon material-home" d="M15,30V21h6v9h7.5V18H33L18,4.5,3,18H7.5V30Z" transform="translate(-3 -4.5)" fill="#707070"/>
              <text id="HOME" transform="translate(1 39.5)" fill="#707070" font-size="10" font-family="Roboto-Bold, Roboto" font-weight="700"><tspan x="0" y="0">HOME</tspan></text>
            </g>
            <g id="icon-menu" transform="translate(66.11 5.5)">
              <path id="Icon_awesome-list-alt" data-name="Icon awesome-list-alt" d="M27.188,29.138H2.813A2.847,2.847,0,0,1,0,26.257V5.131A2.847,2.847,0,0,1,2.813,2.25H27.188A2.847,2.847,0,0,1,30,5.131V26.257A2.847,2.847,0,0,1,27.188,29.138ZM7.5,7.532a2.4,2.4,0,1,0,2.344,2.4A2.373,2.373,0,0,0,7.5,7.532Zm0,5.762a2.4,2.4,0,1,0,2.344,2.4A2.373,2.373,0,0,0,7.5,13.293Zm0,5.762a2.4,2.4,0,1,0,2.344,2.4A2.373,2.373,0,0,0,7.5,19.055Zm16.875-8.163V8.972a.712.712,0,0,0-.7-.72H11.953a.712.712,0,0,0-.7.72v1.921a.712.712,0,0,0,.7.72H23.672A.712.712,0,0,0,24.375,10.893Zm0,5.762V14.734a.712.712,0,0,0-.7-.72H11.953a.712.712,0,0,0-.7.72v1.921a.712.712,0,0,0,.7.72H23.672A.712.712,0,0,0,24.375,16.654Zm0,5.762V20.5a.712.712,0,0,0-.7-.72H11.953a.712.712,0,0,0-.7.72v1.921a.712.712,0,0,0,.7.72H23.672A.712.712,0,0,0,24.375,22.416Z" transform="translate(0 -2.25)" fill="#707070"/>
              <text id="MENU" transform="translate(1 39.5)" fill="#707070" font-size="10" font-family="Roboto-Bold, Roboto" font-weight="700"><tspan x="0" y="0">MENU</tspan></text>
            </g>
            <g id="icon-search" transform="translate(210.358 3.765)">
              <path id="Icon_material-search" data-name="Icon material-search" d="M23.25,21H22.065l-.42-.405a9.765,9.765,0,1,0-1.05,1.05l.405.42V23.25l7.5,7.485L30.735,28.5Zm-9,0A6.75,6.75,0,1,1,21,14.25,6.741,6.741,0,0,1,14.25,21Z" transform="translate(-2.735 -4.5)" fill="#707070"/>
              <text id="SEARCH" transform="translate(0 40.235)" fill="#707070" font-size="10" font-family="Roboto-Bold, Roboto" font-weight="700"><tspan x="0" y="0">SEARCH</tspan></text>
            </g>
            <g id="icon-account" transform="translate(284.5)">
              <path id="Icon_material-account-circle" data-name="Icon material-account-circle" d="M18,3A15,15,0,1,0,33,18,15.005,15.005,0,0,0,18,3Zm0,4.5A4.5,4.5,0,1,1,13.5,12,4.494,4.494,0,0,1,18,7.5Zm0,21.3a10.8,10.8,0,0,1-9-4.83c.045-2.985,6-4.62,9-4.62s8.955,1.635,9,4.62a10.8,10.8,0,0,1-9,4.83Z" transform="translate(4 -3)" fill="#707070"/>
              <text id="ACCOUNT" transform="translate(0 44)" fill="#707070" font-size="10" font-family="Roboto-Bold, Roboto" font-weight="700"><tspan x="0" y="0">ACCOUNT</tspan></text>
            </g>
          </g>
        </g>
        <g id="Item" transform="translate(36 67)">
          <g id="img">
            <rect id="Rectangle_3" data-name="Rectangle 3" width="150" height="150" rx="5" fill="#afecfe"/>
            <line id="Line_1" data-name="Line 1" x2="146.77" y2="145.079" transform="translate(0.574 2.87)" fill="none" stroke="#707070" stroke-width="1"/>
            <line id="Line_2" data-name="Line 2" y1="145.079" x2="145.622" transform="translate(1.722 2.87)" fill="none" stroke="#707070" stroke-width="1"/>
          </g>
          <text id="Item_1_xx_x_xxxx_xx_xxxxx_xx_xx_x_x._xx_xxxx._" data-name="Item 1
xx x xxxx xx xxxxx
xx xx x x. xx xxxx.
" transform="translate(177.5 17)" font-size="16" font-family="Roboto-Bold, Roboto" font-weight="700"><tspan x="0" y="0">Item 1</tspan><tspan font-family="Roboto-Regular, Roboto" font-weight="400"><tspan x="0" y="21">xx x xxxx xx xxxxx</tspan><tspan x="0" y="42">xx xx x x. xx xxxx.</tspan><tspan x="0" y="63"></tspan></tspan></text>
          <g id="Quantity" transform="translate(177.338 67)">
            <g id="Qty_input" data-name="Qty input" transform="translate(0 17)">
              <g id="qty_input-2" data-name="qty input" fill="#fff" stroke="#707070" stroke-width="1">
                <rect width="42" height="20" rx="5" stroke="none"/>
                <rect x="0.5" y="0.5" width="41" height="19" rx="4.5" fill="none"/>
              </g>
              <text id="_-" data-name="-" transform="translate(5 14)" font-size="12" font-family="Roboto-Bold, Roboto" font-weight="700"><tspan x="0" y="0">-</tspan></text>
              <text id="_" data-name="+" transform="translate(31 14)" font-size="12" font-family="Roboto-Bold, Roboto" font-weight="700"><tspan x="0" y="0">+</tspan></text>
              <text id="_1" data-name="1" transform="translate(18 14)" font-size="12" font-family="Roboto-Bold, Roboto" font-weight="700"><tspan x="0" y="0">1</tspan></text>
            </g>
            <text id="Dozen" transform="translate(0 13)" font-size="12" font-family="Roboto-Bold, Roboto" font-weight="700"><tspan x="0" y="0">Dozen</tspan></text>
          </g>
          <rect id="Rectangle_4" data-name="Rectangle 4" width="108" height="39" rx="5" transform="translate(177.5 111)" fill="#afecfe"/>
          <text id="Add_to_order_" data-name="Add to order  " transform="translate(187.5 137)" font-size="16" font-family="Roboto-Bold, Roboto" font-weight="700"><tspan x="0" y="0" xml:space="preserve">Add to order  </tspan></text>
          <text id="_X.XX" data-name="$X.XX" transform="translate(243.5 99)" font-size="15" font-family="Roboto-Bold, Roboto" font-weight="700"><tspan x="0" y="0">$X.XX</tspan></text>
        </g>
        <g id="Item-2" data-name="Item" transform="translate(36 251)">
          <g id="img-2" data-name="img">
            <rect id="Rectangle_3-2" data-name="Rectangle 3" width="150" height="150" rx="5" fill="#afecfe"/>
            <line id="Line_1-2" data-name="Line 1" x2="146.77" y2="145.079" transform="translate(0.574 2.87)" fill="none" stroke="#707070" stroke-width="1"/>
            <line id="Line_2-2" data-name="Line 2" y1="145.079" x2="145.622" transform="translate(1.722 2.87)" fill="none" stroke="#707070" stroke-width="1"/>
          </g>
          <text id="Item_1_xx_x_xxxx_xx_xxxxx_xx_xx_x_x._xx_xxxx._2" data-name="Item 1
xx x xxxx xx xxxxx
xx xx x x. xx xxxx.
" transform="translate(177.5 17)" font-size="16" font-family="Roboto-Bold, Roboto" font-weight="700"><tspan x="0" y="0">Item 1</tspan><tspan font-family="Roboto-Regular, Roboto" font-weight="400"><tspan x="0" y="21">xx x xxxx xx xxxxx</tspan><tspan x="0" y="42">xx xx x x. xx xxxx.</tspan><tspan x="0" y="63"></tspan></tspan></text>
          <g id="Qty_input-3" data-name="Qty input" transform="translate(177.338 84)">
            <g id="qty_input-4" data-name="qty input" fill="#fff" stroke="#707070" stroke-width="1">
              <rect width="42" height="20" rx="5" stroke="none"/>
              <rect x="0.5" y="0.5" width="41" height="19" rx="4.5" fill="none"/>
            </g>
            <text id="_--2" data-name="-" transform="translate(5 14)" font-size="12" font-family="Roboto-Bold, Roboto" font-weight="700"><tspan x="0" y="0">-</tspan></text>
            <text id="_2" data-name="+" transform="translate(31 14)" font-size="12" font-family="Roboto-Bold, Roboto" font-weight="700"><tspan x="0" y="0">+</tspan></text>
            <text id="_1-2" data-name="1" transform="translate(18 14)" font-size="12" font-family="Roboto-Bold, Roboto" font-weight="700"><tspan x="0" y="0">1</tspan></text>
          </g>
          <text id="Dozen-2" data-name="Dozen" transform="translate(177.328 80)" font-size="12" font-family="Roboto-Bold, Roboto" font-weight="700"><tspan x="0" y="0">Dozen</tspan></text>
          <rect id="Rectangle_4-2" data-name="Rectangle 4" width="108" height="39" rx="5" transform="translate(177.5 111)" fill="#afecfe"/>
          <text id="Add_to_order_2" data-name="Add to order  " transform="translate(187.5 137)" font-size="16" font-family="Roboto-Bold, Roboto" font-weight="700"><tspan x="0" y="0" xml:space="preserve">Add to order  </tspan></text>
          <text id="_X.XX-2" data-name="$X.XX" transform="translate(243.5 99)" font-size="15" font-family="Roboto-Bold, Roboto" font-weight="700"><tspan x="0" y="0">$X.XX</tspan></text>
        </g>
        <g id="Item-3" data-name="Item" transform="translate(36 435)">
          <g id="img-3" data-name="img">
            <rect id="Rectangle_3-3" data-name="Rectangle 3" width="150" height="150" rx="5" fill="#afecfe"/>
            <line id="Line_1-3" data-name="Line 1" x2="146.77" y2="145.079" transform="translate(0.574 2.87)" fill="none" stroke="#707070" stroke-width="1"/>
            <line id="Line_2-3" data-name="Line 2" y1="145.079" x2="145.622" transform="translate(1.722 2.87)" fill="none" stroke="#707070" stroke-width="1"/>
          </g>
          <text id="Item_1_xx_x_xxxx_xx_xxxxx_xx_xx_x_x._xx_xxxx._3" data-name="Item 1
xx x xxxx xx xxxxx
xx xx x x. xx xxxx.
" transform="translate(177.5 17)" font-size="16" font-family="Roboto-Bold, Roboto" font-weight="700"><tspan x="0" y="0">Item 1</tspan><tspan font-family="Roboto-Regular, Roboto" font-weight="400"><tspan x="0" y="21">xx x xxxx xx xxxxx</tspan><tspan x="0" y="42">xx xx x x. xx xxxx.</tspan><tspan x="0" y="63"></tspan></tspan></text>
          <g id="Qty_input-5" data-name="Qty input" transform="translate(177.338 84)">
            <g id="qty_input-6" data-name="qty input" fill="#fff" stroke="#707070" stroke-width="1">
              <rect width="42" height="20" rx="5" stroke="none"/>
              <rect x="0.5" y="0.5" width="41" height="19" rx="4.5" fill="none"/>
            </g>
            <text id="_--3" data-name="-" transform="translate(5 14)" font-size="12" font-family="Roboto-Bold, Roboto" font-weight="700"><tspan x="0" y="0">-</tspan></text>
            <text id="_3" data-name="+" transform="translate(31 14)" font-size="12" font-family="Roboto-Bold, Roboto" font-weight="700"><tspan x="0" y="0">+</tspan></text>
            <text id="_1-3" data-name="1" transform="translate(18 14)" font-size="12" font-family="Roboto-Bold, Roboto" font-weight="700"><tspan x="0" y="0">1</tspan></text>
          </g>
          <text id="Dozen-3" data-name="Dozen" transform="translate(177.328 80)" font-size="12" font-family="Roboto-Bold, Roboto" font-weight="700"><tspan x="0" y="0">Dozen</tspan></text>
          <rect id="Rectangle_4-3" data-name="Rectangle 4" width="108" height="39" rx="5" transform="translate(177.5 111)" fill="#afecfe"/>
          <text id="Add_to_order_3" data-name="Add to order  " transform="translate(187.5 137)" font-size="16" font-family="Roboto-Bold, Roboto" font-weight="700"><tspan x="0" y="0" xml:space="preserve">Add to order  </tspan></text>
          <text id="_X.XX-3" data-name="$X.XX" transform="translate(243.5 99)" font-size="15" font-family="Roboto-Bold, Roboto" font-weight="700"><tspan x="0" y="0">$X.XX</tspan></text>
        </g>
      </g>
    </g>
  </g>
</svg>
