<svg xmlns="http://www.w3.org/2000/svg" xmlns:xlink="http://www.w3.org/1999/xlink" width="419" height="741" viewBox="0 0 419 741">
  <defs>
    <linearGradient id="linear-gradient" x1="0.5" x2="0.5" y2="1" gradientUnits="objectBoundingBox">
      <stop offset="0" stop-color="#9a73a1"/>
      <stop offset="1" stop-color="#4d3a51"/>
    </linearGradient>
    <clipPath id="clip-Artboard_4">
      <rect width="419" height="741"/>
    </clipPath>
  </defs>
  <g id="Artboard_4" data-name="Artboard – 4" clip-path="url(#clip-Artboard_4)">
    <g id="wireframe-4">
      <g id="phone" transform="translate(0 2)">
        <g id="outisde" transform="translate(8)" stroke="#4d3a51" stroke-width="3" fill="url(#linear-gradient)">
          <rect width="405" height="738" rx="52" stroke="none"/>
          <rect x="1.5" y="1.5" width="402" height="735" rx="50.5" fill="none"/>
        </g>
        <g id="btn-top" transform="translate(0 149)" stroke="#4d3a51" stroke-width="3" fill="url(#linear-gradient)">
          <path d="M7,0h4a0,0,0,0,1,0,0V56a0,0,0,0,1,0,0H7a7,7,0,0,1-7-7V7A7,7,0,0,1,7,0Z" stroke="none"/>
          <path d="M7,1.5H9.5a0,0,0,0,1,0,0v53a0,0,0,0,1,0,0H7A5.5,5.5,0,0,1,1.5,49V7A5.5,5.5,0,0,1,7,1.5Z" fill="none"/>
        </g>
        <g id="btn-bottom" transform="translate(0 218)" stroke="#4d3a51" stroke-width="3" fill="url(#linear-gradient)">
          <path d="M7,0h4a0,0,0,0,1,0,0V56a0,0,0,0,1,0,0H7a7,7,0,0,1-7-7V7A7,7,0,0,1,7,0Z" stroke="none"/>
          <path d="M7,1.5H9.5a0,0,0,0,1,0,0v53a0,0,0,0,1,0,0H7A5.5,5.5,0,0,1,1.5,49V7A5.5,5.5,0,0,1,7,1.5Z" fill="none"/>
        </g>
        <g id="btn-right" transform="translate(410 167)" stroke="#4d3a51" stroke-width="3" fill="url(#linear-gradient)">
          <rect width="10" height="90" stroke="none"/>
          <rect x="1.5" y="1.5" width="7" height="87" fill="none"/>
        </g>
        <line id="Line_10" data-name="Line 10" x2="54" transform="translate(184.5 15.5)" fill="none" stroke="#050505" stroke-linecap="round" stroke-width="3"/>
        <rect id="inside" width="375" height="681.366" rx="21" transform="translate(23 26.817)" fill="#fff"/>
      </g>
      <g id="Group_14" data-name="Group 14" transform="translate(23 43)">
        <g id="Footer">
          <path id="Rectangle_5" data-name="Rectangle 5" d="M8,0H367a8,8,0,0,1,8,8V39a20,20,0,0,1-20,20H20A20,20,0,0,1,0,39V8A8,8,0,0,1,8,0Z" transform="translate(0 608)" fill="#afecfe"/>
          <g id="icon-cart">
            <g id="Ellipse_2" data-name="Ellipse 2" transform="translate(159 592)" fill="#fff" stroke="#afecfe" stroke-width="1">
              <circle cx="28.5" cy="28.5" r="28.5" stroke="none"/>
              <circle cx="28.5" cy="28.5" r="28" fill="none"/>
            </g>
            <path id="Icon_awesome-shopping-cart" data-name="Icon awesome-shopping-cart" d="M30.239,17.253l2.707-11.91a1.374,1.374,0,0,0-1.34-1.679H9.116L8.591,1.1A1.374,1.374,0,0,0,7.245,0H1.374A1.374,1.374,0,0,0,0,1.374V2.29A1.374,1.374,0,0,0,1.374,3.665h4L9.4,23.329a3.207,3.207,0,1,0,3.839.49h12a3.206,3.206,0,1,0,3.642-.6l.316-1.39a1.374,1.374,0,0,0-1.34-1.679H12.489l-.375-1.832H28.9A1.374,1.374,0,0,0,30.239,17.253Z" transform="translate(169.01 605.842)" fill="#707070"/>
          </g>
          <g id="icons" transform="translate(-5)">
            <g id="icon-home" transform="translate(-12 -0.735)">
              <path id="Icon_material-home" data-name="Icon material-home" d="M15,30V21h6v9h7.5V18H33L18,4.5,3,18H7.5V30Z" transform="translate(36 616)" fill="#707070"/>
              <text id="HOME" transform="translate(40 660)" fill="#707070" font-size="10" font-family="Roboto-Bold, Roboto" font-weight="700"><tspan x="0" y="0">HOME</tspan></text>
            </g>
            <g id="icon-menu" transform="translate(-16)">
              <path id="Icon_awesome-list-alt" data-name="Icon awesome-list-alt" d="M27.188,29.138H2.813A2.847,2.847,0,0,1,0,26.257V5.131A2.847,2.847,0,0,1,2.813,2.25H27.188A2.847,2.847,0,0,1,30,5.131V26.257A2.847,2.847,0,0,1,27.188,29.138ZM7.5,7.532a2.4,2.4,0,1,0,2.344,2.4A2.373,2.373,0,0,0,7.5,7.532Zm0,5.762a2.4,2.4,0,1,0,2.344,2.4A2.373,2.373,0,0,0,7.5,13.293Zm0,5.762a2.4,2.4,0,1,0,2.344,2.4A2.373,2.373,0,0,0,7.5,19.055Zm16.875-8.163V8.972a.712.712,0,0,0-.7-.72H11.953a.712.712,0,0,0-.7.72v1.921a.712.712,0,0,0,.7.72H23.672A.712.712,0,0,0,24.375,10.893Zm0,5.762V14.734a.712.712,0,0,0-.7-.72H11.953a.712.712,0,0,0-.7.72v1.921a.712.712,0,0,0,.7.72H23.672A.712.712,0,0,0,24.375,16.654Zm0,5.762V20.5a.712.712,0,0,0-.7-.72H11.953a.712.712,0,0,0-.7.72v1.921a.712.712,0,0,0,.7.72H23.672A.712.712,0,0,0,24.375,22.416Z" transform="translate(109 618.25)" fill="#707070"/>
              <text id="MENU" transform="translate(110 660)" fill="#707070" font-size="10" font-family="Roboto-Bold, Roboto" font-weight="700"><tspan x="0" y="0">MENU</tspan></text>
            </g>
            <g id="icon-search" transform="translate(8 -1)">
              <path id="Icon_material-search" data-name="Icon material-search" d="M23.25,21H22.065l-.42-.405a9.765,9.765,0,1,0-1.05,1.05l.405.42V23.25l7.5,7.485L30.735,28.5Zm-9,0A6.75,6.75,0,1,1,21,14.25,6.741,6.741,0,0,1,14.25,21Z" transform="translate(226.265 615.265)" fill="#707070"/>
              <text id="SEARCH" transform="translate(229 660)" fill="#707070" font-size="10" font-family="Roboto-Bold, Roboto" font-weight="700"><tspan x="0" y="0">SEARCH</tspan></text>
            </g>
            <g id="icon-account" transform="translate(14 -1)">
              <path id="Icon_material-account-circle" data-name="Icon material-account-circle" d="M18,3A15,15,0,1,0,33,18,15.005,15.005,0,0,0,18,3Zm0,4.5A4.5,4.5,0,1,1,13.5,12,4.494,4.494,0,0,1,18,7.5Zm0,21.3a10.8,10.8,0,0,1-9-4.83c.045-2.985,6-4.62,9-4.62s8.955,1.635,9,4.62a10.8,10.8,0,0,1-9,4.83Z" transform="translate(301 613)" fill="#707070"/>
              <text id="ACCOUNT" transform="translate(297 660)" fill="#707070" font-size="10" font-family="Roboto-Bold, Roboto" font-weight="700"><tspan x="0" y="0">ACCOUNT</tspan></text>
            </g>
          </g>
        </g>
        <text id="Order_Received" data-name="Order Received" transform="translate(98 142)" font-size="25" font-family="Roboto-Bold, Roboto" font-weight="700"><tspan x="0" y="0">Order Received</tspan></text>
        <text id="Thank_you_" data-name="Thank you!" transform="translate(142 188)" font-size="20" font-family="Roboto-Regular, Roboto"><tspan x="0" y="0">Thank you!</tspan></text>
        <text id="DEVILERY_BY" data-name="DEVILERY BY" transform="translate(128 254)" font-size="20" font-family="Roboto-Bold, Roboto" font-weight="700"><tspan x="0" y="0">DEVILERY BY</tspan></text>
        <text id="_12:00PM" data-name="12:00PM" transform="translate(126 306)" font-size="30" font-family="Roboto-Bold, Roboto" font-weight="700"><tspan x="0" y="0">12:00PM</tspan></text>
        <line id="Line_8" data-name="Line 8" x2="342" transform="translate(16.5 216.5)" fill="none" stroke="#707070" stroke-width="1"/>
        <text id="ORDER_STATUS" data-name="ORDER STATUS" transform="translate(132 423)" font-size="16" font-family="Roboto-Regular, Roboto"><tspan x="0" y="0">ORDER STATUS</tspan></text>
        <g id="Group_6" data-name="Group 6" transform="translate(9.054)">
          <path id="Icon_awesome-truck" data-name="Icon awesome-truck" d="M79.95,45.1H77.9V31.25a6.15,6.15,0,0,0-1.807-4.343l-12.8-12.8A6.15,6.15,0,0,0,58.95,12.3H53.3V6.15A6.152,6.152,0,0,0,47.15,0h-41A6.152,6.152,0,0,0,0,6.15v41A6.152,6.152,0,0,0,6.15,53.3H8.2a12.3,12.3,0,0,0,24.6,0H49.2a12.3,12.3,0,0,0,24.6,0h6.15A2.056,2.056,0,0,0,82,51.25v-4.1A2.056,2.056,0,0,0,79.95,45.1ZM20.5,59.45a6.15,6.15,0,1,1,6.15-6.15A6.152,6.152,0,0,1,20.5,59.45Zm41,0a6.15,6.15,0,1,1,6.15-6.15A6.152,6.152,0,0,1,61.5,59.45ZM71.75,32.8H53.3V18.45h5.65l12.8,12.8Z" transform="translate(165 443)"/>
          <path id="Icon_awesome-wind" data-name="Icon awesome-wind" d="M31.127,18H43.453a1.29,1.29,0,0,1,1.4,1.125v2.25a1.29,1.29,0,0,1-1.4,1.125H31a2.858,2.858,0,0,0-2.926,1.87C27.781,25.777,29.13,27,30.838,27A2.837,2.837,0,0,0,33.5,25.46a1.42,1.42,0,0,1,1.332-.71h2.873c.859,0,1.551.619,1.393,1.294-.753,3.1-4.17,5.456-8.252,5.456-5,0-9-3.523-8.34-7.636C23.041,20.461,26.861,18,31.127,18Zm12.326-2.25H14.018c-5.23,0-9.356-3.853-8.217-8.205C6.467,5,9.034,2.939,12.2,2.4c4.853-.816,9.207,1.751,10.065,5.309C22.437,8.388,21.736,9,20.886,9H18.013a1.411,1.411,0,0,1-1.332-.71,2.837,2.837,0,0,0-2.663-1.54c-1.7,0-3.057,1.223-2.768,2.63a2.851,2.851,0,0,0,2.926,1.87H43.453a1.29,1.29,0,0,1,1.4,1.125v2.25A1.29,1.29,0,0,1,43.453,15.75ZM9.813,18H23.506a8.871,8.871,0,0,0-3.487,4.5H9.813c-2.321,0-4.2,1.512-4.2,3.375s1.883,3.375,4.2,3.375a4.449,4.449,0,0,0,3.644-1.716A1.573,1.573,0,0,1,14.728,27h2.961c.955,0,1.664.759,1.34,1.484-1.559,3.558-6.176,5.963-11.336,5.084-3.609-.612-6.579-2.925-7.42-5.815C-1.224,22.605,3.637,18,9.813,18Z" transform="translate(108.946 457.799)"/>
        </g>
        <text id="CHECK" transform="translate(162 402)" font-size="16" font-family="Roboto-Regular, Roboto"><tspan x="0" y="0">CHECK</tspan></text>
        <g id="Group_13" data-name="Group 13" transform="translate(169 676)">
          <g id="Group_11" data-name="Group 11" transform="translate(-166 -676)">
            <text id="RO_S_BAGELS" data-name="RO&apos;S BAGELS" transform="translate(21 29)" font-size="16" font-family="Roboto-Bold, Roboto" font-weight="700"><tspan x="0" y="0">RO&apos;S BAGELS</tspan></text>
            <g id="Burger" transform="translate(94 1.876)">
              <line id="Line_3" data-name="Line 3" x2="28" transform="translate(225.5 12.5)" fill="none" stroke="#707070" stroke-linecap="round" stroke-width="3"/>
              <line id="Line_4" data-name="Line 4" x2="28" transform="translate(225.5 31.124)" fill="none" stroke="#707070" stroke-linecap="round" stroke-width="3"/>
              <line id="Line_5" data-name="Line 5" x2="28" transform="translate(225.5 21.812)" fill="none" stroke="#707070" stroke-linecap="round" stroke-width="3"/>
            </g>
          </g>
          <g id="Footer-2" data-name="Footer" transform="translate(-169 -676)">
            <path id="Rectangle_5-2" data-name="Rectangle 5" d="M8,0H367a8,8,0,0,1,8,8V39a20,20,0,0,1-20,20H20A20,20,0,0,1,0,39V8A8,8,0,0,1,8,0Z" transform="translate(0 608)" fill="#afecfe"/>
            <g id="icon-cart-2" data-name="icon-cart">
              <g id="Ellipse_2-2" data-name="Ellipse 2" transform="translate(159 592)" fill="#fff" stroke="#afecfe" stroke-width="1">
                <circle cx="28.5" cy="28.5" r="28.5" stroke="none"/>
                <circle cx="28.5" cy="28.5" r="28" fill="none"/>
              </g>
              <path id="Icon_awesome-shopping-cart-2" data-name="Icon awesome-shopping-cart" d="M30.239,17.253l2.707-11.91a1.374,1.374,0,0,0-1.34-1.679H9.116L8.591,1.1A1.374,1.374,0,0,0,7.245,0H1.374A1.374,1.374,0,0,0,0,1.374V2.29A1.374,1.374,0,0,0,1.374,3.665h4L9.4,23.329a3.207,3.207,0,1,0,3.839.49h12a3.206,3.206,0,1,0,3.642-.6l.316-1.39a1.374,1.374,0,0,0-1.34-1.679H12.489l-.375-1.832H28.9A1.374,1.374,0,0,0,30.239,17.253Z" transform="translate(169.01 605.842)" fill="#707070"/>
            </g>
            <g id="icons-2" data-name="icons" transform="translate(-5)">
              <g id="icon-home-2" data-name="icon-home" transform="translate(-12 -0.735)">
                <path id="Icon_material-home-2" data-name="Icon material-home" d="M15,30V21h6v9h7.5V18H33L18,4.5,3,18H7.5V30Z" transform="translate(36 616)" fill="#707070"/>
                <text id="HOME-2" data-name="HOME" transform="translate(40 660)" fill="#707070" font-size="10" font-family="Roboto-Bold, Roboto" font-weight="700"><tspan x="0" y="0">HOME</tspan></text>
              </g>
              <g id="icon-menu-2" data-name="icon-menu" transform="translate(-16)">
                <path id="Icon_awesome-list-alt-2" data-name="Icon awesome-list-alt" d="M27.188,29.138H2.813A2.847,2.847,0,0,1,0,26.257V5.131A2.847,2.847,0,0,1,2.813,2.25H27.188A2.847,2.847,0,0,1,30,5.131V26.257A2.847,2.847,0,0,1,27.188,29.138ZM7.5,7.532a2.4,2.4,0,1,0,2.344,2.4A2.373,2.373,0,0,0,7.5,7.532Zm0,5.762a2.4,2.4,0,1,0,2.344,2.4A2.373,2.373,0,0,0,7.5,13.293Zm0,5.762a2.4,2.4,0,1,0,2.344,2.4A2.373,2.373,0,0,0,7.5,19.055Zm16.875-8.163V8.972a.712.712,0,0,0-.7-.72H11.953a.712.712,0,0,0-.7.72v1.921a.712.712,0,0,0,.7.72H23.672A.712.712,0,0,0,24.375,10.893Zm0,5.762V14.734a.712.712,0,0,0-.7-.72H11.953a.712.712,0,0,0-.7.72v1.921a.712.712,0,0,0,.7.72H23.672A.712.712,0,0,0,24.375,16.654Zm0,5.762V20.5a.712.712,0,0,0-.7-.72H11.953a.712.712,0,0,0-.7.72v1.921a.712.712,0,0,0,.7.72H23.672A.712.712,0,0,0,24.375,22.416Z" transform="translate(109 618.25)" fill="#707070"/>
                <text id="MENU-2" data-name="MENU" transform="translate(110 660)" fill="#707070" font-size="10" font-family="Roboto-Bold, Roboto" font-weight="700"><tspan x="0" y="0">MENU</tspan></text>
              </g>
              <g id="icon-search-2" data-name="icon-search" transform="translate(8 -1)">
                <path id="Icon_material-search-2" data-name="Icon material-search" d="M23.25,21H22.065l-.42-.405a9.765,9.765,0,1,0-1.05,1.05l.405.42V23.25l7.5,7.485L30.735,28.5Zm-9,0A6.75,6.75,0,1,1,21,14.25,6.741,6.741,0,0,1,14.25,21Z" transform="translate(226.265 615.265)" fill="#707070"/>
                <text id="SEARCH-2" data-name="SEARCH" transform="translate(229 660)" fill="#707070" font-size="10" font-family="Roboto-Bold, Roboto" font-weight="700"><tspan x="0" y="0">SEARCH</tspan></text>
              </g>
              <g id="icon-account-2" data-name="icon-account" transform="translate(14 -1)">
                <path id="Icon_material-account-circle-2" data-name="Icon material-account-circle" d="M18,3A15,15,0,1,0,33,18,15.005,15.005,0,0,0,18,3Zm0,4.5A4.5,4.5,0,1,1,13.5,12,4.494,4.494,0,0,1,18,7.5Zm0,21.3a10.8,10.8,0,0,1-9-4.83c.045-2.985,6-4.62,9-4.62s8.955,1.635,9,4.62a10.8,10.8,0,0,1-9,4.83Z" transform="translate(301 613)" fill="#707070"/>
                <text id="ACCOUNT-2" data-name="ACCOUNT" transform="translate(297 660)" fill="#707070" font-size="10" font-family="Roboto-Bold, Roboto" font-weight="700"><tspan x="0" y="0">ACCOUNT</tspan></text>
              </g>
            </g>
          </g>
          <text id="Order_Received-2" data-name="Order Received" transform="translate(-71 -534)" font-size="25" font-family="Roboto-Bold, Roboto" font-weight="700"><tspan x="0" y="0">Order Received</tspan></text>
          <text id="Thank_you_2" data-name="Thank you!" transform="translate(-27 -488)" font-size="20" font-family="Roboto-Regular, Roboto"><tspan x="0" y="0">Thank you!</tspan></text>
          <text id="DEVILERY_BY-2" data-name="DEVILERY BY" transform="translate(-41 -422)" font-size="20" font-family="Roboto-Bold, Roboto" font-weight="700"><tspan x="0" y="0">DEVILERY BY</tspan></text>
          <text id="_12:00PM-2" data-name="12:00PM" transform="translate(-43 -370)" font-size="30" font-family="Roboto-Bold, Roboto" font-weight="700"><tspan x="0" y="0">12:00PM</tspan></text>
          <line id="Line_9" data-name="Line 9" x2="342" transform="translate(-152.5 -459.5)" fill="none" stroke="#707070" stroke-width="1"/>
          <text id="ORDER_STATUS-2" data-name="ORDER STATUS" transform="translate(-37 -253)" font-size="16" font-family="Roboto-Regular, Roboto"><tspan x="0" y="0">ORDER STATUS</tspan></text>
          <g id="Group_12" data-name="Group 12" transform="translate(-159.946 -676)">
            <path id="Icon_awesome-truck-2" data-name="Icon awesome-truck" d="M79.95,45.1H77.9V31.25a6.15,6.15,0,0,0-1.807-4.343l-12.8-12.8A6.15,6.15,0,0,0,58.95,12.3H53.3V6.15A6.152,6.152,0,0,0,47.15,0h-41A6.152,6.152,0,0,0,0,6.15v41A6.152,6.152,0,0,0,6.15,53.3H8.2a12.3,12.3,0,0,0,24.6,0H49.2a12.3,12.3,0,0,0,24.6,0h6.15A2.056,2.056,0,0,0,82,51.25v-4.1A2.056,2.056,0,0,0,79.95,45.1ZM20.5,59.45a6.15,6.15,0,1,1,6.15-6.15A6.152,6.152,0,0,1,20.5,59.45Zm41,0a6.15,6.15,0,1,1,6.15-6.15A6.152,6.152,0,0,1,61.5,59.45ZM71.75,32.8H53.3V18.45h5.65l12.8,12.8Z" transform="translate(165 443)"/>
            <path id="Icon_awesome-wind-2" data-name="Icon awesome-wind" d="M31.127,18H43.453a1.29,1.29,0,0,1,1.4,1.125v2.25a1.29,1.29,0,0,1-1.4,1.125H31a2.858,2.858,0,0,0-2.926,1.87C27.781,25.777,29.13,27,30.838,27A2.837,2.837,0,0,0,33.5,25.46a1.42,1.42,0,0,1,1.332-.71h2.873c.859,0,1.551.619,1.393,1.294-.753,3.1-4.17,5.456-8.252,5.456-5,0-9-3.523-8.34-7.636C23.041,20.461,26.861,18,31.127,18Zm12.326-2.25H14.018c-5.23,0-9.356-3.853-8.217-8.205C6.467,5,9.034,2.939,12.2,2.4c4.853-.816,9.207,1.751,10.065,5.309C22.437,8.388,21.736,9,20.886,9H18.013a1.411,1.411,0,0,1-1.332-.71,2.837,2.837,0,0,0-2.663-1.54c-1.7,0-3.057,1.223-2.768,2.63a2.851,2.851,0,0,0,2.926,1.87H43.453a1.29,1.29,0,0,1,1.4,1.125v2.25A1.29,1.29,0,0,1,43.453,15.75ZM9.813,18H23.506a8.871,8.871,0,0,0-3.487,4.5H9.813c-2.321,0-4.2,1.512-4.2,3.375s1.883,3.375,4.2,3.375a4.449,4.449,0,0,0,3.644-1.716A1.573,1.573,0,0,1,14.728,27h2.961c.955,0,1.664.759,1.34,1.484-1.559,3.558-6.176,5.963-11.336,5.084-3.609-.612-6.579-2.925-7.42-5.815C-1.224,22.605,3.637,18,9.813,18Z" transform="translate(108.946 457.799)"/>
          </g>
          <text id="CHECK-2" data-name="CHECK" transform="translate(-7 -274)" font-size="16" font-family="Roboto-Regular, Roboto"><tspan x="0" y="0">CHECK</tspan></text>
        </g>
      </g>
    </g>
  </g>
</svg>
