<?xml version="1.0" encoding="utf-8"?>
<!-- Generator: Adobe Illustrator 27.0.0, SVG Export Plug-In . SVG Version: 6.00 Build 0)  -->
<svg version="1.1" id="wireframe-1" xmlns="http://www.w3.org/2000/svg" xmlns:xlink="http://www.w3.org/1999/xlink" x="0px"
	 y="0px" viewBox="0 0 420 738" style="enable-background:new 0 0 420 738;" xml:space="preserve">
<style type="text/css">
	.st0{fill:url(#SVGID_1_);}
	.st1{fill:none;stroke:#4D3A51;stroke-width:3;}
	.st2{fill:url(#SVGID_00000088816016750666015490000016293779817705110147_);}
	.st3{fill:url(#SVGID_00000170970961341150164160000000784033378382750088_);}
	.st4{fill:url(#SVGID_00000171707301125783554770000001094105522114097281_);}
	.st5{fill:none;stroke:#050505;stroke-width:3;stroke-linecap:round;}
	.st6{fill:#FFFFFF;}
	.st7{enable-background:new    ;}
	.st8{fill:#AFECFE;}
	.st9{fill:#707070;}
</style>
<g id="phone">
	<g id="outisde" transform="translate(8)">
		
			<linearGradient id="SVGID_1_" gradientUnits="userSpaceOnUse" x1="-94.2852" y1="789.8194" x2="-94.2852" y2="788.8194" gradientTransform="matrix(405 0 0 -738 38388 582886.6875)">
			<stop  offset="0" style="stop-color:#9A73A1"/>
			<stop  offset="1" style="stop-color:#4D3A51"/>
		</linearGradient>
		<path class="st0" d="M52,0h301c28.7,0,52,23.3,52,52v634c0,28.7-23.3,52-52,52H52c-28.7,0-52-23.3-52-52V52C0,23.3,23.3,0,52,0z"
			/>
		<path class="st1" d="M52,1.5h301c27.9,0,50.5,22.6,50.5,50.5v634c0,27.9-22.6,50.5-50.5,50.5H52c-27.9,0-50.5-22.6-50.5-50.5V52
			C1.5,24.1,24.1,1.5,52,1.5z"/>
	</g>
	<g id="btn-top" transform="translate(0 149)">
		
			<linearGradient id="SVGID_00000040558935011957204450000004976514628165806760_" gradientUnits="userSpaceOnUse" x1="-78.5909" y1="639.9612" x2="-78.5909" y2="638.9612" gradientTransform="matrix(11 0 0 -56 870 35837.832)">
			<stop  offset="0" style="stop-color:#9A73A1"/>
			<stop  offset="1" style="stop-color:#4D3A51"/>
		</linearGradient>
		<path style="fill:url(#SVGID_00000040558935011957204450000004976514628165806760_);" d="M7,0h4l0,0v56l0,0H7c-3.9,0-7-3.1-7-7V7
			C0,3.1,3.1,0,7,0z"/>
		<path class="st1" d="M7,1.5h2.5l0,0v53l0,0H7c-3,0-5.5-2.5-5.5-5.5V7C1.5,4,4,1.5,7,1.5z"/>
	</g>
	<g id="btn-bottom" transform="translate(0 218)">
		
			<linearGradient id="SVGID_00000110437052290953215560000006158856583410965390_" gradientUnits="userSpaceOnUse" x1="-78.5909" y1="570.9612" x2="-78.5909" y2="569.9612" gradientTransform="matrix(11 0 0 -56 870 31973.8301)">
			<stop  offset="0" style="stop-color:#9A73A1"/>
			<stop  offset="1" style="stop-color:#4D3A51"/>
		</linearGradient>
		<path style="fill:url(#SVGID_00000110437052290953215560000006158856583410965390_);" d="M7,0h4l0,0v56l0,0H7c-3.9,0-7-3.1-7-7V7
			C0,3.1,3.1,0,7,0z"/>
		<path class="st1" d="M7,1.5h2.5l0,0v53l0,0H7c-3,0-5.5-2.5-5.5-5.5V7C1.5,4,4,1.5,7,1.5z"/>
	</g>
	<g id="btn-right" transform="translate(410 167)">
		
			<linearGradient id="SVGID_00000159434686478440407610000010411288568047095714_" gradientUnits="userSpaceOnUse" x1="-487.8" y1="622.3121" x2="-487.8" y2="621.3121" gradientTransform="matrix(10 0 0 -90 4883 56008.0859)">
			<stop  offset="0" style="stop-color:#9A73A1"/>
			<stop  offset="1" style="stop-color:#4D3A51"/>
		</linearGradient>
		<rect y="0" style="fill:url(#SVGID_00000159434686478440407610000010411288568047095714_);" width="10" height="90"/>
		<rect x="1.5" y="1.5" class="st1" width="7" height="87"/>
	</g>
</g>
<line id="Line_10" class="st5" x1="184.5" y1="15.5" x2="238.5" y2="15.5"/>
<path id="inside" class="st6" d="M44,26.8h333c11.6,0,21,9.4,21,21v639.4c0,11.6-9.4,21-21,21H44c-11.6,0-21-9.4-21-21V47.8
	C23,36.2,32.4,26.8,44,26.8z"/>
<g id="wireframe-1-2" transform="translate(-277 -134)">
	<g id="Group_7" transform="translate(1 22)">
		<g class="st7">
			<path d="M428.9,388.4h-7.1V408h-3.9v-19.6h-7v-3.2h18V388.4z"/>
			<path d="M449.9,408H446v-10.1h-10.2V408h-4v-22.8h4v9.5H446v-9.5h3.9V408z"/>
			<path d="M458.8,408h-3.9v-22.8h3.9V408z"/>
			<path d="M475.5,402.1c0-1-0.4-1.8-1.1-2.3c-0.7-0.5-2-1.1-3.8-1.6c-1.8-0.6-3.3-1.2-4.4-1.8c-2.1-1.3-3.1-3-3.1-5.1
				c0-1.8,0.7-3.3,2.2-4.5c1.5-1.2,3.4-1.8,5.8-1.8c1.6,0,3,0.3,4.2,0.9c1.2,0.6,2.2,1.4,2.9,2.5c0.7,1.1,1.1,2.3,1.1,3.6h-3.9
				c0-1.2-0.4-2.1-1.1-2.8c-0.7-0.7-1.8-1-3.2-1c-1.3,0-2.3,0.3-3,0.8c-0.7,0.6-1.1,1.3-1.1,2.3c0,0.8,0.4,1.5,1.2,2.1
				c0.8,0.6,2,1.1,3.8,1.6c1.8,0.5,3.2,1.1,4.3,1.8c1.1,0.7,1.9,1.4,2.4,2.3c0.5,0.9,0.8,1.9,0.8,3.1c0,1.9-0.7,3.4-2.2,4.5
				c-1.5,1.1-3.4,1.7-5.9,1.7c-1.6,0-3.2-0.3-4.5-0.9c-1.4-0.6-2.5-1.5-3.2-2.5c-0.8-1.1-1.1-2.3-1.1-3.8h4c0,1.3,0.4,2.3,1.3,3
				c0.9,0.7,2.1,1.1,3.7,1.1c1.4,0,2.4-0.3,3.1-0.8C475.2,403.8,475.5,403.1,475.5,402.1z"/>
			<path d="M495.1,408h-3.9v-22.8h3.9V408z"/>
			<path d="M511.8,402.1c0-1-0.4-1.8-1.1-2.3c-0.7-0.5-2-1.1-3.8-1.6c-1.8-0.6-3.3-1.2-4.4-1.8c-2.1-1.3-3.1-3-3.1-5.1
				c0-1.8,0.7-3.3,2.2-4.5s3.4-1.8,5.8-1.8c1.6,0,3,0.3,4.2,0.9c1.2,0.6,2.2,1.4,2.9,2.5s1.1,2.3,1.1,3.6h-3.9
				c0-1.2-0.4-2.1-1.1-2.8s-1.8-1-3.2-1c-1.3,0-2.3,0.3-3,0.8c-0.7,0.6-1.1,1.3-1.1,2.3c0,0.8,0.4,1.5,1.2,2.1
				c0.8,0.6,2,1.1,3.8,1.6c1.8,0.5,3.2,1.1,4.3,1.8s1.9,1.4,2.4,2.3c0.5,0.9,0.8,1.9,0.8,3.1c0,1.9-0.7,3.4-2.2,4.5
				c-1.5,1.1-3.4,1.7-5.9,1.7c-1.6,0-3.2-0.3-4.5-0.9s-2.5-1.5-3.2-2.5c-0.8-1.1-1.1-2.3-1.1-3.8h4c0,1.3,0.4,2.3,1.3,3
				c0.9,0.7,2.1,1.1,3.7,1.1c1.4,0,2.4-0.3,3.1-0.8C511.5,403.8,511.8,403.1,511.8,402.1z"/>
			<path d="M532.3,385.3l6.6,17.4l6.5-17.4h5.1V408h-3.9v-7.5l0.4-10l-6.7,17.5h-2.8l-6.7-17.5l0.4,10v7.5h-3.9v-22.8H532.3z"/>
			<path d="M562.7,396l5.2-10.8h4.4l-7.6,14.4v8.4h-4v-8.4l-7.6-14.4h4.4L562.7,396z"/>
		</g>
		<g class="st7">
			<path d="M399,435.3l6.6,17.4l6.5-17.4h5.1V458h-3.9v-7.5l0.4-10L407,458h-2.8l-6.7-17.5l0.4,10v7.5h-3.9v-22.8H399z"/>
			<path d="M434.7,452.7h-8.8L424,458h-4.1l8.6-22.8h3.5l8.6,22.8h-4.1L434.7,452.7z M427,449.5h6.6l-3.3-9.4L427,449.5z"/>
			<path d="M451.6,449.3h-4.4v8.8h-4v-22.8h8c2.6,0,4.7,0.6,6.1,1.8c1.4,1.2,2.1,2.9,2.1,5.1c0,1.5-0.4,2.8-1.1,3.8
				c-0.7,1-1.8,1.8-3.1,2.4l5.1,9.5v0.2h-4.2L451.6,449.3z M447.2,446.1h4.1c1.3,0,2.4-0.3,3.1-1s1.1-1.6,1.1-2.8
				c0-1.2-0.3-2.2-1-2.8c-0.7-0.7-1.7-1-3.1-1h-4.2V446.1z"/>
			<path d="M469.7,448.2l-2.6,2.7v7.1h-4v-22.8h4v10.7l2.2-2.7l6.7-8h4.8l-8.5,10.1l8.9,12.7h-4.7L469.7,448.2z"/>
			<path d="M496.7,447.8h-9.3v7h10.9v3.2h-14.9v-22.8h14.8v3.2h-10.8v6.3h9.3V447.8z"/>
			<path d="M518.2,438.4h-7.1V458h-3.9v-19.6h-7v-3.2h18V438.4z"/>
			<path d="M525.4,458h-3.9v-22.8h3.9V458z"/>
			<path d="M548.3,458h-4l-10.1-16.1V458h-4v-22.8h4l10.2,16.2v-16.2h3.9V458z"/>
			<path d="M570.4,455c-0.8,1.1-2,1.9-3.4,2.4s-3.1,0.8-5,0.8c-1.9,0-3.6-0.4-5.1-1.3c-1.5-0.9-2.6-2.1-3.4-3.7s-1.2-3.5-1.2-5.6
				v-1.8c0-3.4,0.8-6.1,2.5-8.1c1.6-1.9,3.9-2.9,6.9-2.9c2.5,0,4.5,0.6,6,1.9c1.5,1.3,2.4,3.1,2.7,5.4h-3.9c-0.4-2.7-2-4.1-4.8-4.1
				c-1.8,0-3.1,0.6-4,1.9c-0.9,1.3-1.4,3.1-1.4,5.6v1.7c0,2.5,0.5,4.4,1.6,5.7s2.5,2,4.3,2c2,0,3.5-0.5,4.3-1.4v-4.5h-4.7v-3h8.6
				V455z"/>
		</g>
		<g class="st7">
			<path d="M429,485.3l6.6,17.4l6.5-17.4h5.1V508h-3.9v-7.5l0.4-10L437,508h-2.8l-6.7-17.5l0.4,10v7.5h-3.9v-22.8H429z"/>
			<path d="M465.2,497.8h-9.3v7h10.9v3.2h-14.9v-22.8h14.8v3.2h-10.8v6.3h9.3V497.8z"/>
			<path d="M481.9,502.1c0-1-0.4-1.8-1.1-2.3c-0.7-0.5-2-1.1-3.8-1.6c-1.8-0.6-3.3-1.2-4.4-1.8c-2.1-1.3-3.1-3-3.1-5.1
				c0-1.8,0.7-3.3,2.2-4.5c1.5-1.2,3.4-1.8,5.8-1.8c1.6,0,3,0.3,4.2,0.9c1.2,0.6,2.2,1.4,2.9,2.5c0.7,1.1,1.1,2.3,1.1,3.6h-3.9
				c0-1.2-0.4-2.1-1.1-2.8c-0.7-0.7-1.8-1-3.2-1c-1.3,0-2.3,0.3-3,0.8c-0.7,0.6-1.1,1.3-1.1,2.3c0,0.8,0.4,1.5,1.2,2.1
				c0.8,0.6,2,1.1,3.8,1.6c1.8,0.5,3.2,1.1,4.3,1.8c1.1,0.7,1.9,1.4,2.4,2.3c0.5,0.9,0.8,1.9,0.8,3.1c0,1.9-0.7,3.4-2.2,4.5
				c-1.5,1.1-3.4,1.7-5.9,1.7c-1.6,0-3.2-0.3-4.5-0.9c-1.4-0.6-2.5-1.5-3.2-2.5c-0.8-1.1-1.1-2.3-1.1-3.8h4c0,1.3,0.4,2.3,1.3,3
				c0.9,0.7,2.1,1.1,3.7,1.1c1.4,0,2.4-0.3,3.1-0.8C481.5,503.8,481.9,503.1,481.9,502.1z"/>
			<path d="M501.2,502.1c0-1-0.4-1.8-1.1-2.3c-0.7-0.5-2-1.1-3.8-1.6c-1.8-0.6-3.3-1.2-4.4-1.8c-2.1-1.3-3.1-3-3.1-5.1
				c0-1.8,0.7-3.3,2.2-4.5c1.5-1.2,3.4-1.8,5.8-1.8c1.6,0,3,0.3,4.2,0.9c1.2,0.6,2.2,1.4,2.9,2.5c0.7,1.1,1.1,2.3,1.1,3.6h-3.9
				c0-1.2-0.4-2.1-1.1-2.8c-0.7-0.7-1.8-1-3.2-1c-1.3,0-2.3,0.3-3,0.8c-0.7,0.6-1.1,1.3-1.1,2.3c0,0.8,0.4,1.5,1.2,2.1
				c0.8,0.6,2,1.1,3.8,1.6c1.8,0.5,3.2,1.1,4.3,1.8c1.1,0.7,1.9,1.4,2.4,2.3c0.5,0.9,0.8,1.9,0.8,3.1c0,1.9-0.7,3.4-2.2,4.5
				c-1.5,1.1-3.4,1.7-5.9,1.7c-1.6,0-3.2-0.3-4.5-0.9c-1.4-0.6-2.5-1.5-3.2-2.5c-0.8-1.1-1.1-2.3-1.1-3.8h4c0,1.3,0.4,2.3,1.3,3
				c0.9,0.7,2.1,1.1,3.7,1.1c1.4,0,2.4-0.3,3.1-0.8C500.8,503.8,501.2,503.1,501.2,502.1z"/>
			<path d="M521.3,502.7h-8.8l-1.8,5.3h-4.1l8.6-22.8h3.5l8.6,22.8h-4.1L521.3,502.7z M513.6,499.5h6.6l-3.3-9.4L513.6,499.5z"/>
			<path d="M547.3,505c-0.8,1.1-2,1.9-3.4,2.4c-1.5,0.6-3.1,0.8-5,0.8c-1.9,0-3.6-0.4-5.1-1.3c-1.5-0.9-2.6-2.1-3.4-3.7
				s-1.2-3.5-1.2-5.6v-1.8c0-3.4,0.8-6.1,2.5-8.1c1.6-1.9,3.9-2.9,6.9-2.9c2.5,0,4.5,0.6,6,1.9c1.5,1.3,2.4,3.1,2.7,5.4h-3.9
				c-0.4-2.7-2-4.1-4.8-4.1c-1.8,0-3.1,0.6-4,1.9c-0.9,1.3-1.4,3.1-1.4,5.6v1.7c0,2.5,0.5,4.4,1.6,5.7c1,1.4,2.5,2,4.3,2
				c2,0,3.5-0.5,4.3-1.4v-4.5h-4.7v-3h8.6V505z"/>
			<path d="M565,497.8h-9.3v7h10.9v3.2h-14.9v-22.8h14.8v3.2h-10.8v6.3h9.3V497.8z"/>
			<path d="M571.8,504c0.7,0,1.3,0.2,1.6,0.6c0.4,0.4,0.6,0.9,0.6,1.5c0,0.6-0.2,1.1-0.6,1.5c-0.4,0.4-0.9,0.6-1.6,0.6
				c-0.7,0-1.2-0.2-1.6-0.6c-0.4-0.4-0.6-0.9-0.6-1.5c0-0.6,0.2-1.1,0.6-1.5C570.5,504.2,571.1,504,571.8,504z"/>
		</g>
		<g id="Rectangle_2">
			<path class="st8" d="M356,543h96c2.8,0,5,2.2,5,5v34c0,2.8-2.2,5-5,5h-96c-2.8,0-5-2.2-5-5v-34C351,545.2,353.2,543,356,543z"/>
		</g>
		<g id="Rectangle_1">
			<path class="st8" d="M519,543h98c2.8,0,5,2.2,5,5v34c0,2.8-2.2,5-5,5h-98c-2.8,0-5-2.2-5-5v-34C514,545.2,516.2,543,519,543z"/>
		</g>
		<g class="st7">
			<path d="M376.4,565.6c0,1.1-0.2,2.1-0.6,2.9c-0.4,0.8-1,1.5-1.7,2c-0.7,0.5-1.6,0.7-2.5,0.7c-0.9,0-1.8-0.2-2.5-0.7
				c-0.7-0.5-1.3-1.1-1.7-1.9s-0.6-1.8-0.6-2.9v-0.6c0-1.1,0.2-2.1,0.6-3c0.4-0.9,1-1.5,1.7-2c0.7-0.5,1.6-0.7,2.5-0.7
				c0.9,0,1.8,0.2,2.5,0.7c0.7,0.5,1.3,1.1,1.7,2c0.4,0.9,0.6,1.8,0.6,2.9V565.6z M374,565.1c0-1.2-0.2-2.1-0.6-2.7
				c-0.4-0.6-1-0.9-1.8-0.9c-0.8,0-1.4,0.3-1.8,0.9c-0.4,0.6-0.6,1.5-0.6,2.7v0.6c0,1.2,0.2,2.1,0.6,2.7c0.4,0.6,1,1,1.8,1
				c0.8,0,1.4-0.3,1.8-0.9s0.6-1.5,0.6-2.7V565.1z"/>
			<path d="M382.7,564.7c-0.3,0-0.6-0.1-0.8-0.1c-0.9,0-1.4,0.3-1.7,0.9v5.5h-2.3v-8.5h2.1l0.1,1c0.5-0.8,1.1-1.2,1.9-1.2
				c0.2,0,0.5,0,0.7,0.1L382.7,564.7z"/>
			<path d="M383.4,566.7c0-1.3,0.3-2.4,0.9-3.1c0.6-0.8,1.4-1.2,2.4-1.2c0.8,0,1.5,0.3,2,0.9V559h2.3v12h-2l-0.1-0.9
				c-0.6,0.7-1.3,1.1-2.2,1.1c-1,0-1.8-0.4-2.4-1.2S383.4,568.1,383.4,566.7z M385.7,566.9c0,0.8,0.1,1.4,0.4,1.8
				c0.3,0.4,0.7,0.6,1.2,0.6c0.7,0,1.2-0.3,1.5-0.9v-3.3c-0.3-0.6-0.8-0.9-1.5-0.9C386.2,564.2,385.7,565.1,385.7,566.9z"/>
			<path d="M396.7,571.2c-1.2,0-2.2-0.4-3-1.1c-0.8-0.8-1.2-1.8-1.2-3v-0.2c0-0.8,0.2-1.6,0.5-2.3s0.8-1.2,1.4-1.5s1.3-0.5,2.1-0.5
				c1.2,0,2.1,0.4,2.7,1.1s1,1.8,1,3.1v0.9h-5.4c0.1,0.6,0.3,1,0.7,1.3s0.8,0.5,1.4,0.5c0.9,0,1.5-0.3,2-0.9l1.1,1.2
				c-0.3,0.5-0.8,0.9-1.4,1.1S397.4,571.2,396.7,571.2z M396.4,564.2c-0.4,0-0.8,0.2-1.1,0.5c-0.3,0.3-0.5,0.7-0.5,1.3h3.1v-0.2
				c0-0.5-0.1-0.9-0.4-1.2C397.2,564.3,396.9,564.2,396.4,564.2z"/>
			<path d="M406.2,564.7c-0.3,0-0.6-0.1-0.8-0.1c-0.9,0-1.4,0.3-1.7,0.9v5.5h-2.3v-8.5h2.1l0.1,1c0.5-0.8,1.1-1.2,1.9-1.2
				c0.2,0,0.5,0,0.7,0.1L406.2,564.7z"/>
			<path d="M420.6,571h-2.3l-4.6-7.5v7.5h-2.3v-11.4h2.3l4.6,7.5v-7.5h2.3V571z"/>
			<path d="M422.2,566.7c0-0.8,0.2-1.6,0.5-2.2c0.3-0.7,0.8-1.2,1.4-1.5c0.6-0.4,1.3-0.5,2.1-0.5c1.1,0,2.1,0.3,2.8,1
				c0.7,0.7,1.1,1.6,1.2,2.8l0,0.6c0,1.3-0.4,2.3-1.1,3.1c-0.7,0.8-1.7,1.2-2.9,1.2s-2.2-0.4-2.9-1.2s-1.1-1.8-1.1-3.2V566.7z
				 M424.4,566.9c0,0.8,0.2,1.4,0.5,1.8c0.3,0.4,0.7,0.6,1.3,0.6c0.5,0,1-0.2,1.3-0.6c0.3-0.4,0.5-1.1,0.5-2c0-0.8-0.2-1.4-0.5-1.8
				c-0.3-0.4-0.7-0.6-1.3-0.6c-0.6,0-1,0.2-1.3,0.6C424.6,565.3,424.4,566,424.4,566.9z"/>
			<path d="M438.9,567.9l1.1-5.4h2.2l-2.2,8.5h-1.9l-1.6-5.3L435,571h-1.9l-2.2-8.5h2.2l1.1,5.4l1.5-5.4h1.6L438.9,567.9z"/>
		</g>
		<g class="st7">
			<path d="M530.4,569.1h5v1.9H528v-11.4h2.3V569.1z"/>
			<path d="M540.4,571.2c-1.2,0-2.2-0.4-3-1.1c-0.8-0.8-1.2-1.8-1.2-3v-0.2c0-0.8,0.2-1.6,0.5-2.3s0.8-1.2,1.4-1.5s1.3-0.5,2.1-0.5
				c1.2,0,2.1,0.4,2.7,1.1s1,1.8,1,3.1v0.9h-5.4c0.1,0.6,0.3,1,0.7,1.3s0.8,0.5,1.4,0.5c0.9,0,1.5-0.3,2-0.9l1.1,1.2
				c-0.3,0.5-0.8,0.9-1.4,1.1S541.1,571.2,540.4,571.2z M540.2,564.2c-0.4,0-0.8,0.2-1.1,0.5c-0.3,0.3-0.5,0.7-0.5,1.3h3.1v-0.2
				c0-0.5-0.1-0.9-0.4-1.2C541,564.3,540.6,564.2,540.2,564.2z"/>
			<path d="M550.1,571c-0.1-0.2-0.2-0.5-0.2-0.8c-0.5,0.6-1.3,0.9-2.1,0.9c-0.8,0-1.5-0.2-2.1-0.7c-0.5-0.5-0.8-1.1-0.8-1.8
				c0-0.9,0.3-1.6,1-2.1s1.6-0.7,2.9-0.7h1v-0.5c0-0.4-0.1-0.7-0.3-0.9c-0.2-0.2-0.5-0.4-0.9-0.4c-0.4,0-0.7,0.1-0.9,0.3
				c-0.2,0.2-0.3,0.4-0.3,0.8H545c0-0.5,0.2-0.9,0.5-1.4c0.3-0.4,0.7-0.7,1.3-1c0.6-0.2,1.2-0.4,1.9-0.4c1,0,1.9,0.3,2.5,0.8
				c0.6,0.5,0.9,1.3,0.9,2.2v3.7c0,0.8,0.1,1.4,0.3,1.8v0.1H550.1z M548.2,569.4c0.3,0,0.6-0.1,0.9-0.2s0.5-0.3,0.6-0.6v-1.5h-0.8
				c-1.1,0-1.7,0.4-1.8,1.2l0,0.1c0,0.3,0.1,0.5,0.3,0.7C547.6,569.3,547.9,569.4,548.2,569.4z"/>
			<path d="M558.5,564.7c-0.3,0-0.6-0.1-0.8-0.1c-0.9,0-1.4,0.3-1.7,0.9v5.5h-2.3v-8.5h2.1l0.1,1c0.5-0.8,1.1-1.2,1.9-1.2
				c0.2,0,0.5,0,0.7,0.1L558.5,564.7z"/>
			<path d="M561.7,562.5l0.1,1c0.6-0.8,1.4-1.1,2.4-1.1c0.9,0,1.6,0.3,2,0.8s0.7,1.3,0.7,2.4v5.5h-2.3v-5.4c0-0.5-0.1-0.8-0.3-1
				c-0.2-0.2-0.6-0.3-1-0.3c-0.6,0-1.1,0.3-1.4,0.8v6h-2.3v-8.5H561.7z"/>
			<path d="M575.8,559.6l2.9,8.2l2.9-8.2h3.1V571h-2.4v-3.1l0.2-5.4l-3.1,8.5h-1.6l-3.1-8.5l0.2,5.4v3.1h-2.3v-11.4H575.8z"/>
			<path d="M586.2,566.7c0-0.8,0.2-1.6,0.5-2.2c0.3-0.7,0.8-1.2,1.4-1.5c0.6-0.4,1.3-0.5,2.1-0.5c1.1,0,2.1,0.3,2.8,1
				c0.7,0.7,1.1,1.6,1.2,2.8l0,0.6c0,1.3-0.4,2.3-1.1,3.1c-0.7,0.8-1.7,1.2-2.9,1.2s-2.2-0.4-2.9-1.2s-1.1-1.8-1.1-3.2V566.7z
				 M588.5,566.9c0,0.8,0.2,1.4,0.5,1.8c0.3,0.4,0.7,0.6,1.3,0.6c0.5,0,1-0.2,1.3-0.6c0.3-0.4,0.5-1.1,0.5-2c0-0.8-0.2-1.4-0.5-1.8
				c-0.3-0.4-0.7-0.6-1.3-0.6c-0.6,0-1,0.2-1.3,0.6C588.6,565.3,588.5,566,588.5,566.9z"/>
			<path d="M600.4,564.7c-0.3,0-0.6-0.1-0.8-0.1c-0.9,0-1.4,0.3-1.7,0.9v5.5h-2.3v-8.5h2.1l0.1,1c0.5-0.8,1.1-1.2,1.9-1.2
				c0.2,0,0.5,0,0.7,0.1L600.4,564.7z"/>
			<path d="M605.3,571.2c-1.2,0-2.2-0.4-3-1.1c-0.8-0.8-1.2-1.8-1.2-3v-0.2c0-0.8,0.2-1.6,0.5-2.3s0.8-1.2,1.4-1.5s1.3-0.5,2.1-0.5
				c1.2,0,2.1,0.4,2.7,1.1s1,1.8,1,3.1v0.9h-5.4c0.1,0.6,0.3,1,0.7,1.3s0.8,0.5,1.4,0.5c0.9,0,1.5-0.3,2-0.9l1.1,1.2
				c-0.3,0.5-0.8,0.9-1.4,1.1S606,571.2,605.3,571.2z M605.1,564.2c-0.4,0-0.8,0.2-1.1,0.5c-0.3,0.3-0.5,0.7-0.5,1.3h3.1v-0.2
				c0-0.5-0.1-0.9-0.4-1.2C605.9,564.3,605.5,564.2,605.1,564.2z"/>
		</g>
		<g id="Group_1" transform="translate(308 155)">
			<g id="Rectangle_3">
				<path class="st8" d="M52,58h253c2.8,0,5,2.2,5,5v124c0,2.8-2.2,5-5,5H52c-2.8,0-5-2.2-5-5V63C47,60.2,49.2,58,52,58z"/>
			</g>
			<g id="Line_1">
				
					<rect x="177.5" y="-20.3" transform="matrix(0.4471 -0.8945 0.8945 0.4471 -13.928 228.7019)" class="st9" width="1" height="291.9"/>
			</g>
			<g id="Line_2">
				
					<rect x="33" y="125.1" transform="matrix(0.8938 -0.4484 0.4484 0.8938 -37.3753 93.3723)" class="st9" width="291.1" height="1"/>
			</g>
		</g>
		<g id="Plus" transform="translate(288 142)">
			<g id="Ellipse_1" transform="translate(304 177)">
				<g>
					<circle class="st6" cx="10" cy="10" r="10"/>
				</g>
				<g>
					<path class="st9" d="M10,20C4.5,20,0,15.5,0,10S4.5,0,10,0s10,4.5,10,10S15.5,20,10,20z M10,1c-5,0-9,4-9,9s4,9,9,9s9-4,9-9
						S15,1,10,1z"/>
				</g>
			</g>
			<g class="st7">
				<path class="st9" d="M315,186h3.3v2H315v3.8H313v-3.8h-3.4v-2h3.4v-3.6h2.1V186z"/>
			</g>
		</g>
		<g id="Nav" transform="translate(299 155)">
			<g class="st7">
				<path d="M26.2,24.8h-1.9V29H22V17.6h4.2c1.3,0,2.4,0.3,3.1,0.9c0.7,0.6,1.1,1.4,1.1,2.5c0,0.8-0.2,1.4-0.5,1.9s-0.8,0.9-1.5,1.2
					l2.5,4.6V29h-2.5L26.2,24.8z M24.4,22.9h1.9c0.6,0,1-0.1,1.4-0.4c0.3-0.3,0.5-0.7,0.5-1.2c0-0.5-0.2-1-0.5-1.3s-0.8-0.5-1.4-0.5
					h-1.9V22.9z"/>
				<path d="M41.6,23.6c0,1.1-0.2,2.1-0.6,2.9c-0.4,0.8-1,1.5-1.7,2c-0.7,0.5-1.6,0.7-2.5,0.7c-0.9,0-1.8-0.2-2.5-0.7
					c-0.7-0.5-1.3-1.1-1.7-1.9s-0.6-1.8-0.6-2.9v-0.6c0-1.1,0.2-2.1,0.6-3c0.4-0.9,1-1.5,1.7-2c0.7-0.5,1.6-0.7,2.5-0.7
					c0.9,0,1.8,0.2,2.5,0.7c0.7,0.5,1.3,1.1,1.7,2c0.4,0.9,0.6,1.8,0.6,2.9V23.6z M39.2,23.1c0-1.2-0.2-2.1-0.6-2.7
					c-0.4-0.6-1-0.9-1.8-0.9c-0.8,0-1.4,0.3-1.8,0.9c-0.4,0.6-0.6,1.5-0.6,2.7v0.6c0,1.2,0.2,2.1,0.6,2.7c0.4,0.6,1,1,1.8,1
					c0.8,0,1.4-0.3,1.8-0.9s0.6-1.5,0.6-2.7V23.1z"/>
				<path d="M44.4,18.1l-0.2,3.2h-1.4V17h1.7V18.1z"/>
				<path d="M51.8,26c0-0.4-0.2-0.8-0.5-1s-0.9-0.5-1.7-0.8s-1.5-0.5-1.9-0.8c-1.3-0.7-1.9-1.6-1.9-2.8c0-0.6,0.2-1.2,0.5-1.6
					c0.3-0.5,0.8-0.9,1.5-1.1s1.4-0.4,2.2-0.4c0.8,0,1.5,0.1,2.2,0.4c0.6,0.3,1.1,0.7,1.5,1.2s0.5,1.1,0.5,1.8h-2.3
					c0-0.5-0.2-0.9-0.5-1.2s-0.8-0.4-1.4-0.4c-0.6,0-1,0.1-1.3,0.4c-0.3,0.2-0.5,0.6-0.5,1c0,0.4,0.2,0.7,0.6,0.9
					c0.4,0.2,0.9,0.5,1.6,0.7c1.3,0.4,2.3,0.9,2.9,1.5s0.9,1.3,0.9,2.2c0,1-0.4,1.8-1.1,2.3c-0.7,0.6-1.7,0.8-3,0.8
					c-0.9,0-1.7-0.2-2.4-0.5s-1.3-0.8-1.6-1.3c-0.4-0.6-0.6-1.2-0.6-1.9h2.4c0,1.3,0.8,1.9,2.2,1.9c0.6,0,1-0.1,1.3-0.3
					S51.8,26.4,51.8,26z"/>
				<path d="M59.7,29V17.6h4c1.4,0,2.4,0.3,3.1,0.8c0.7,0.5,1.1,1.3,1.1,2.3c0,0.6-0.1,1-0.4,1.5c-0.3,0.4-0.7,0.7-1.2,0.9
					c0.6,0.1,1,0.4,1.4,0.9s0.5,1,0.5,1.6c0,1.1-0.3,1.9-1,2.5c-0.7,0.6-1.7,0.8-3,0.9H59.7z M62,22.4h1.7c1.2,0,1.8-0.5,1.8-1.4
					c0-0.5-0.1-0.9-0.4-1.1c-0.3-0.2-0.8-0.3-1.4-0.3H62V22.4z M62,24v3.1h2c0.6,0,1-0.1,1.3-0.4c0.3-0.3,0.5-0.6,0.5-1.1
					c0-1-0.5-1.6-1.6-1.6H62z"/>
				<path d="M76.3,26.7h-4.1L71.4,29h-2.5l4.2-11.4h2.2L79.6,29h-2.5L76.3,26.7z M72.8,24.8h2.8l-1.4-4.3L72.8,24.8z"/>
				<path d="M89.7,27.6c-0.4,0.5-1,0.9-1.8,1.2c-0.8,0.3-1.6,0.4-2.6,0.4c-1,0-1.8-0.2-2.6-0.6s-1.3-1.1-1.7-1.9
					c-0.4-0.8-0.6-1.8-0.6-2.9V23c0-1.1,0.2-2.1,0.6-2.9s0.9-1.5,1.7-1.9c0.7-0.4,1.6-0.7,2.5-0.7c1.3,0,2.4,0.3,3.2,1
					c0.8,0.6,1.2,1.6,1.4,2.8h-2.3c-0.1-0.7-0.3-1.1-0.7-1.4c-0.4-0.3-0.8-0.5-1.5-0.5c-0.8,0-1.4,0.3-1.8,0.9
					c-0.4,0.6-0.6,1.5-0.6,2.7v0.7c0,1.2,0.2,2.1,0.7,2.7s1.1,0.9,2,0.9c0.9,0,1.5-0.2,1.9-0.6v-2h-2.1V23h4.5V27.6z"/>
				<path d="M98.4,24.1h-4.5v3h5.3V29h-7.6V17.6h7.6v1.9h-5.3v2.7h4.5V24.1z"/>
				<path d="M102.9,27.1h5V29h-7.3V17.6h2.3V27.1z"/>
				<path d="M115.1,26c0-0.4-0.2-0.8-0.5-1s-0.9-0.5-1.7-0.8s-1.5-0.5-1.9-0.8c-1.3-0.7-1.9-1.6-1.9-2.8c0-0.6,0.2-1.2,0.5-1.6
					c0.3-0.5,0.8-0.9,1.5-1.1s1.4-0.4,2.2-0.4c0.8,0,1.5,0.1,2.2,0.4c0.6,0.3,1.1,0.7,1.5,1.2s0.5,1.1,0.5,1.8h-2.3
					c0-0.5-0.2-0.9-0.5-1.2s-0.8-0.4-1.4-0.4c-0.6,0-1,0.1-1.3,0.4c-0.3,0.2-0.5,0.6-0.5,1c0,0.4,0.2,0.7,0.6,0.9
					c0.4,0.2,0.9,0.5,1.6,0.7c1.3,0.4,2.3,0.9,2.9,1.5s0.9,1.3,0.9,2.2c0,1-0.4,1.8-1.1,2.3c-0.7,0.6-1.7,0.8-3,0.8
					c-0.9,0-1.7-0.2-2.4-0.5s-1.3-0.8-1.6-1.3c-0.4-0.6-0.6-1.2-0.6-1.9h2.4c0,1.3,0.8,1.9,2.2,1.9c0.6,0,1-0.1,1.3-0.3
					S115.1,26.4,115.1,26z"/>
			</g>
			<g id="Burger" transform="translate(94 1.876)">
				<g id="Line_3">
					<path class="st9" d="M253.5,14h-28c-0.8,0-1.5-0.7-1.5-1.5s0.7-1.5,1.5-1.5h28c0.8,0,1.5,0.7,1.5,1.5S254.3,14,253.5,14z"/>
				</g>
				<g id="Line_4">
					<path class="st9" d="M253.5,32.6h-28c-0.8,0-1.5-0.7-1.5-1.5s0.7-1.5,1.5-1.5h28c0.8,0,1.5,0.7,1.5,1.5S254.3,32.6,253.5,32.6z
						"/>
				</g>
				<g id="Line_5">
					<path class="st9" d="M253.5,23.3h-28c-0.8,0-1.5-0.7-1.5-1.5s0.7-1.5,1.5-1.5h28c0.8,0,1.5,0.7,1.5,1.5S254.3,23.3,253.5,23.3z
						"/>
				</g>
			</g>
		</g>
		<g id="Footer" transform="translate(299 155)">
			<g id="Rectangle_5">
				<path class="st8" d="M8,608h359c4.4,0,8,3.6,8,8v31c0,11-9,20-20,20H20c-11,0-20-9-20-20v-31C0,611.6,3.6,608,8,608z"/>
			</g>
			<g id="icon-cart">
				<g id="Ellipse_2" transform="translate(159 592)">
					<g>
						<circle class="st6" cx="28.5" cy="28.5" r="28.5"/>
					</g>
					<g>
						<path class="st8" d="M28.5,57C12.8,57,0,44.2,0,28.5S12.8,0,28.5,0S57,12.8,57,28.5S44.2,57,28.5,57z M28.5,1
							C13.3,1,1,13.3,1,28.5S13.3,56,28.5,56C43.7,56,56,43.7,56,28.5S43.7,1,28.5,1z"/>
					</g>
				</g>
				<g id="Icon_awesome-shopping-cart">
					<path class="st9" d="M199.2,623.1l2.7-11.9c0.2-0.7-0.3-1.5-1-1.6c-0.1,0-0.2,0-0.3,0h-22.5l-0.5-2.6c-0.1-0.6-0.7-1.1-1.3-1.1
						h-5.9c-0.8,0-1.4,0.6-1.4,1.4v0.9c0,0.8,0.6,1.4,1.4,1.4c0,0,0,0,0,0h4l4,19.7c-1.5,0.9-2.1,2.8-1.2,4.4
						c0.9,1.5,2.8,2.1,4.4,1.2s2.1-2.8,1.2-4.4c-0.1-0.3-0.3-0.5-0.5-0.7h12c-1.3,1.2-1.3,3.3,0,4.5s3.3,1.3,4.5,0
						c1.3-1.2,1.3-3.3,0-4.5c-0.3-0.3-0.6-0.5-0.9-0.6l0.3-1.4c0.2-0.7-0.3-1.5-1-1.6c-0.1,0-0.2,0-0.3,0h-15.4l-0.4-1.8h16.8
						C198.5,624.2,199.1,623.7,199.2,623.1z"/>
				</g>
			</g>
			<g id="icons" transform="translate(-5)">
				<g id="icon-home" transform="translate(-12 -0.735)">
					<g id="Icon_material-home">
						<path class="st9" d="M51,646v-9h6v9h7.5v-12H69l-15-13.5L39,634h4.5v12H51z"/>
					</g>
					<g class="st7">
						<path class="st9" d="M46.4,660H45v-3h-2.9v3h-1.5v-7.1h1.5v2.9H45v-2.9h1.5V660z"/>
						<path class="st9" d="M53.5,656.6c0,0.7-0.1,1.3-0.4,1.8s-0.6,0.9-1.1,1.2s-1,0.4-1.6,0.4c-0.6,0-1.1-0.1-1.6-0.4
							s-0.8-0.7-1.1-1.2c-0.3-0.5-0.4-1.1-0.4-1.8v-0.4c0-0.7,0.1-1.3,0.4-1.8c0.3-0.5,0.6-0.9,1.1-1.2c0.5-0.3,1-0.4,1.6-0.4
							s1.1,0.1,1.6,0.4c0.5,0.3,0.8,0.7,1.1,1.2c0.3,0.5,0.4,1.1,0.4,1.8V656.6z M52.1,656.3c0-0.7-0.1-1.3-0.4-1.7S51,654,50.5,654
							c-0.5,0-0.9,0.2-1.1,0.6c-0.3,0.4-0.4,0.9-0.4,1.7v0.3c0,0.7,0.1,1.3,0.4,1.7s0.7,0.6,1.2,0.6c0.5,0,0.9-0.2,1.1-0.6
							c0.3-0.4,0.4-0.9,0.4-1.7V656.3z"/>
						<path class="st9" d="M56.5,652.9l1.8,5.2l1.8-5.2h1.9v7.1h-1.5v-1.9l0.1-3.4l-1.9,5.3h-1l-1.9-5.3l0.1,3.3v1.9h-1.5v-7.1H56.5
							z"/>
						<path class="st9" d="M67.6,656.9h-2.8v1.9h3.3v1.2h-4.8v-7.1h4.8v1.2h-3.3v1.7h2.8V656.9z"/>
					</g>
				</g>
				<g id="icon-menu" transform="translate(-16)">
					<g id="Icon_awesome-list-alt">
						<path class="st9" d="M136.2,647.4h-24.4c-1.6,0-2.8-1.3-2.8-2.9c0,0,0,0,0,0v-21.1c0-1.6,1.2-2.9,2.8-2.9c0,0,0,0,0,0h24.4
							c1.6,0,2.8,1.3,2.8,2.9v21.1C139,646.1,137.8,647.4,136.2,647.4z M116.5,625.8c-1.3,0-2.4,1-2.5,2.3c0,1.3,1,2.4,2.3,2.5
							c1.3,0,2.4-1,2.5-2.3c0,0,0,0,0-0.1C118.9,626.9,117.8,625.8,116.5,625.8z M116.5,631.5c-1.3,0-2.4,1-2.5,2.3s1,2.4,2.3,2.5
							c1.3,0,2.4-1,2.5-2.3c0,0,0,0,0-0.1C118.9,632.6,117.8,631.6,116.5,631.5L116.5,631.5z M116.5,637.3c-1.3,0-2.4,1-2.5,2.3
							s1,2.4,2.3,2.5c1.3,0,2.4-1,2.5-2.3c0,0,0,0,0-0.1C118.9,638.4,117.8,637.3,116.5,637.3L116.5,637.3z M133.4,629.1v-1.9
							c0-0.4-0.3-0.7-0.7-0.7H121c-0.4,0-0.7,0.3-0.7,0.7v1.9c0,0.4,0.3,0.7,0.7,0.7h11.7C133.1,629.9,133.4,629.5,133.4,629.1z
							 M133.4,634.9V633c0-0.4-0.3-0.7-0.7-0.7H121c-0.4,0-0.7,0.3-0.7,0.7v1.9c0,0.4,0.3,0.7,0.7,0.7h11.7
							C133.1,635.6,133.4,635.3,133.4,634.9C133.4,634.9,133.4,634.9,133.4,634.9L133.4,634.9z M133.4,640.7v-1.9
							c0-0.4-0.3-0.7-0.7-0.7H121c-0.4,0-0.7,0.3-0.7,0.7v1.9c0,0.4,0.3,0.7,0.7,0.7h11.7C133.1,641.4,133.4,641.1,133.4,640.7
							C133.4,640.7,133.4,640.7,133.4,640.7L133.4,640.7z"/>
					</g>
					<g class="st7">
						<path class="st9" d="M112.5,652.9l1.8,5.2l1.8-5.2h1.9v7.1h-1.5v-1.9l0.1-3.4l-1.9,5.3h-1l-1.9-5.3l0.1,3.3v1.9h-1.5v-7.1
							H112.5z"/>
						<path class="st9" d="M123.7,656.9h-2.8v1.9h3.3v1.2h-4.8v-7.1h4.8v1.2h-3.3v1.7h2.8V656.9z"/>
						<path class="st9" d="M130.8,660h-1.5l-2.9-4.7v4.7H125v-7.1h1.5l2.9,4.7v-4.7h1.5V660z"/>
						<path class="st9" d="M137.5,652.9v4.7c0,0.8-0.2,1.4-0.7,1.8s-1.2,0.7-2,0.7c-0.8,0-1.5-0.2-2-0.7s-0.7-1-0.7-1.8v-4.7h1.5
							v4.7c0,0.5,0.1,0.8,0.3,1c0.2,0.2,0.5,0.3,0.9,0.3c0.8,0,1.2-0.4,1.3-1.3v-4.7H137.5z"/>
					</g>
				</g>
				<g id="icon-search" transform="translate(8 -1)">
					<g id="Icon_material-search">
						<path class="st9" d="M249.5,636.3h-1.2l-0.4-0.4c3.5-4.1,3-10.3-1.1-13.8c-4.1-3.5-10.3-3-13.8,1c-3.5,4.1-3,10.3,1.1,13.8
							c3.7,3.1,9.1,3.1,12.7,0l0.4,0.4v1.2l7.5,7.5l2.2-2.2L249.5,636.3z M240.5,636.3c-3.7,0-6.8-3-6.8-6.8s3-6.8,6.8-6.8
							s6.8,3,6.8,6.8C247.3,633.2,244.3,636.3,240.5,636.3C240.5,636.3,240.5,636.3,240.5,636.3z"/>
					</g>
					<g class="st7">
						<path class="st9" d="M233.3,658.1c0-0.3-0.1-0.5-0.3-0.6c-0.2-0.1-0.5-0.3-1.1-0.5c-0.5-0.2-0.9-0.3-1.2-0.5
							c-0.8-0.4-1.2-1-1.2-1.8c0-0.4,0.1-0.7,0.3-1c0.2-0.3,0.5-0.5,0.9-0.7c0.4-0.2,0.9-0.3,1.4-0.3c0.5,0,1,0.1,1.4,0.3
							c0.4,0.2,0.7,0.4,0.9,0.8c0.2,0.3,0.3,0.7,0.3,1.1h-1.5c0-0.3-0.1-0.6-0.3-0.8c-0.2-0.2-0.5-0.3-0.9-0.3
							c-0.4,0-0.6,0.1-0.8,0.2c-0.2,0.2-0.3,0.4-0.3,0.6c0,0.2,0.1,0.4,0.3,0.6c0.2,0.2,0.6,0.3,1,0.4c0.8,0.3,1.4,0.6,1.8,0.9
							s0.6,0.8,0.6,1.4c0,0.6-0.2,1.1-0.7,1.4c-0.5,0.4-1.1,0.5-1.9,0.5c-0.5,0-1-0.1-1.5-0.3c-0.4-0.2-0.8-0.5-1-0.8
							c-0.2-0.3-0.4-0.8-0.4-1.2h1.5c0,0.8,0.5,1.2,1.4,1.2c0.3,0,0.6-0.1,0.8-0.2C233.2,658.6,233.3,658.4,233.3,658.1z"/>
						<path class="st9" d="M240.1,656.9h-2.8v1.9h3.3v1.2h-4.8v-7.1h4.8v1.2h-3.3v1.7h2.8V656.9z"/>
						<path class="st9" d="M245.4,658.5h-2.6l-0.5,1.5h-1.6l2.6-7.1h1.4l2.7,7.1h-1.6L245.4,658.5z M243.2,657.3h1.8l-0.9-2.7
							L243.2,657.3z"/>
						<path class="st9" d="M250.8,657.4h-1.2v2.6h-1.5v-7.1h2.6c0.8,0,1.5,0.2,1.9,0.6s0.7,0.9,0.7,1.6c0,0.5-0.1,0.9-0.3,1.2
							c-0.2,0.3-0.5,0.6-1,0.8l1.5,2.9v0.1h-1.6L250.8,657.4z M249.6,656.2h1.2c0.4,0,0.7-0.1,0.9-0.3c0.2-0.2,0.3-0.4,0.3-0.8
							c0-0.3-0.1-0.6-0.3-0.8c-0.2-0.2-0.5-0.3-0.9-0.3h-1.2V656.2z"/>
						<path class="st9" d="M260.1,657.6c-0.1,0.8-0.3,1.4-0.8,1.8c-0.5,0.4-1.2,0.7-2,0.7c-0.9,0-1.6-0.3-2.2-0.9
							c-0.5-0.6-0.8-1.5-0.8-2.5v-0.4c0-0.7,0.1-1.3,0.4-1.8s0.6-0.9,1-1.2c0.4-0.3,1-0.4,1.6-0.4c0.8,0,1.5,0.2,2,0.7
							s0.8,1.1,0.9,1.9h-1.5c0-0.5-0.2-0.8-0.4-1c-0.2-0.2-0.6-0.3-1-0.3c-0.5,0-0.9,0.2-1.1,0.5c-0.2,0.3-0.4,0.9-0.4,1.6v0.5
							c0,0.8,0.1,1.3,0.3,1.7c0.2,0.4,0.6,0.5,1.1,0.5c0.5,0,0.8-0.1,1-0.3c0.2-0.2,0.4-0.5,0.4-1H260.1z"/>
						<path class="st9" d="M266.8,660h-1.5v-3h-2.9v3h-1.5v-7.1h1.5v2.9h2.9v-2.9h1.5V660z"/>
					</g>
				</g>
				<g id="icon-account" transform="translate(14 -1)">
					<g id="Icon_material-account-circle">
						<path class="st9" d="M319,616c-8.3,0-15,6.7-15,15c0,8.3,6.7,15,15,15s15-6.7,15-15C334,622.7,327.3,616,319,616z M319,620.5
							c2.5,0,4.5,2,4.5,4.5s-2,4.5-4.5,4.5s-4.5-2-4.5-4.5C314.5,622.5,316.5,620.5,319,620.5C319,620.5,319,620.5,319,620.5z
							 M319,641.8c-3.6,0-7-1.8-9-4.8c0-3,6-4.6,9-4.6s9,1.6,9,4.6C326,640,322.6,641.8,319,641.8z"/>
					</g>
					<g class="st7">
						<path class="st9" d="M301.6,658.5h-2.6l-0.5,1.5H297l2.6-7.1h1.4l2.7,7.1h-1.6L301.6,658.5z M299.5,657.3h1.8l-0.9-2.7
							L299.5,657.3z"/>
						<path class="st9" d="M309.9,657.6c-0.1,0.8-0.3,1.4-0.8,1.8c-0.5,0.4-1.2,0.7-2,0.7c-0.9,0-1.6-0.3-2.2-0.9
							c-0.5-0.6-0.8-1.5-0.8-2.5v-0.4c0-0.7,0.1-1.3,0.4-1.8s0.6-0.9,1-1.2c0.4-0.3,1-0.4,1.6-0.4c0.8,0,1.5,0.2,2,0.7
							s0.8,1.1,0.9,1.9h-1.5c0-0.5-0.2-0.8-0.4-1c-0.2-0.2-0.6-0.3-1-0.3c-0.5,0-0.9,0.2-1.1,0.5c-0.2,0.3-0.4,0.9-0.4,1.6v0.5
							c0,0.8,0.1,1.3,0.3,1.7c0.2,0.4,0.6,0.5,1.1,0.5c0.5,0,0.8-0.1,1-0.3c0.2-0.2,0.4-0.5,0.4-1H309.9z"/>
						<path class="st9" d="M316.5,657.6c-0.1,0.8-0.3,1.4-0.8,1.8c-0.5,0.4-1.2,0.7-2,0.7c-0.9,0-1.6-0.3-2.2-0.9
							c-0.5-0.6-0.8-1.5-0.8-2.5v-0.4c0-0.7,0.1-1.3,0.4-1.8s0.6-0.9,1-1.2c0.4-0.3,1-0.4,1.6-0.4c0.8,0,1.5,0.2,2,0.7
							s0.8,1.1,0.9,1.9H315c0-0.5-0.2-0.8-0.4-1c-0.2-0.2-0.6-0.3-1-0.3c-0.5,0-0.9,0.2-1.1,0.5c-0.2,0.3-0.4,0.9-0.4,1.6v0.5
							c0,0.8,0.1,1.3,0.3,1.7c0.2,0.4,0.6,0.5,1.1,0.5c0.5,0,0.8-0.1,1-0.3c0.2-0.2,0.4-0.5,0.4-1H316.5z"/>
						<path class="st9" d="M323.3,656.6c0,0.7-0.1,1.3-0.4,1.8s-0.6,0.9-1.1,1.2c-0.5,0.3-1,0.4-1.6,0.4c-0.6,0-1.1-0.1-1.6-0.4
							s-0.8-0.7-1.1-1.2c-0.3-0.5-0.4-1.1-0.4-1.8v-0.4c0-0.7,0.1-1.3,0.4-1.8c0.3-0.5,0.6-0.9,1.1-1.2c0.5-0.3,1-0.4,1.6-0.4
							s1.1,0.1,1.6,0.4c0.5,0.3,0.8,0.7,1.1,1.2c0.3,0.5,0.4,1.1,0.4,1.8V656.6z M321.8,656.3c0-0.7-0.1-1.3-0.4-1.7
							s-0.6-0.6-1.1-0.6c-0.5,0-0.9,0.2-1.1,0.6c-0.3,0.4-0.4,0.9-0.4,1.7v0.3c0,0.7,0.1,1.3,0.4,1.7s0.7,0.6,1.2,0.6
							c0.5,0,0.9-0.2,1.1-0.6c0.3-0.4,0.4-0.9,0.4-1.7V656.3z"/>
						<path class="st9" d="M329.7,652.9v4.7c0,0.8-0.2,1.4-0.7,1.8c-0.5,0.5-1.2,0.7-2,0.7c-0.8,0-1.5-0.2-2-0.7s-0.7-1-0.7-1.8
							v-4.7h1.5v4.7c0,0.5,0.1,0.8,0.3,1c0.2,0.2,0.5,0.3,0.9,0.3c0.8,0,1.2-0.4,1.3-1.3v-4.7H329.7z"/>
						<path class="st9" d="M336.7,660h-1.5l-2.9-4.7v4.7h-1.5v-7.1h1.5l2.9,4.7v-4.7h1.5V660z"/>
						<path class="st9" d="M343.3,654.1h-2.2v5.9h-1.5v-5.9h-2.1v-1.2h5.8V654.1z"/>
					</g>
				</g>
			</g>
		</g>
		<g id="img" transform="translate(293.306 567.306)">
			<g id="Rectangle_3-2">
				<path class="st8" d="M51.7,57.7h107c2.8,0,5,2.2,5,5v107c0,2.8-2.2,5-5,5h-107c-2.8,0-5-2.2-5-5v-107
					C46.7,59.9,48.9,57.7,51.7,57.7z"/>
			</g>
			<g id="Line_1-2">
				
					<rect x="104" y="36.4" transform="matrix(0.703 -0.7112 0.7112 0.703 -51.9243 108.996)" class="st9" width="1" height="160.5"/>
			</g>
			<g id="Line_2-2">
				
					<rect x="25" y="116.2" transform="matrix(0.7086 -0.7056 0.7056 0.7086 -51.729 108.0812)" class="st9" width="159.9" height="1"/>
			</g>
		</g>
		<g id="img-2" transform="translate(422.306 567.306)">
			<g id="Rectangle_3-3">
				<path class="st8" d="M51.7,57.7h107c2.8,0,5,2.2,5,5v107c0,2.8-2.2,5-5,5h-107c-2.8,0-5-2.2-5-5v-107
					C46.7,59.9,48.9,57.7,51.7,57.7z"/>
			</g>
			<g id="Line_1-3">
				
					<rect x="104" y="36.4" transform="matrix(0.703 -0.7112 0.7112 0.703 -51.9243 108.9954)" class="st9" width="1" height="160.5"/>
			</g>
			<g id="Line_2-3">
				
					<rect x="25" y="116.2" transform="matrix(0.7086 -0.7056 0.7056 0.7086 -51.7291 108.0811)" class="st9" width="159.9" height="1"/>
			</g>
		</g>
		<g id="Rectangle_3-4">
			<path class="st8" d="M603,625h71l0,0v117l0,0h-71c-2.8,0-5-2.2-5-5V630C598,627.2,600.2,625,603,625z"/>
		</g>
		<g id="Group_8">
			<g id="Line_1-4">
				
					<rect x="636.1" y="611.9" transform="matrix(0.7081 -0.7061 0.7061 0.7081 -284.1005 643.7967)" class="st9" width="1" height="107.3"/>
			</g>
			<g id="Line_2-4">
				
					<rect x="584.1" y="702.5" transform="matrix(0.7071 -0.7071 0.7071 0.7071 -310.4679 656.3688)" class="st9" width="105.9" height="1"/>
			</g>
		</g>
		<g id="Icon_ionic-ios-arrow-back">
			<path class="st9" d="M320.4,687l8.9-8.9c0.7-0.7,0.7-1.7,0-2.4c-0.7-0.7-1.7-0.7-2.4,0l-10.1,10.1c-0.6,0.6-0.7,1.7,0,2.3
				l10.2,10.2c0.7,0.7,1.7,0.7,2.4,0s0.7-1.7,0-2.4L320.4,687z"/>
		</g>
		<g id="Icon_ionic-ios-arrow-forward">
			<path class="st9" d="M664.2,686l-8.9-8.9c-0.7-0.7-0.7-1.7,0-2.4c0,0,0,0,0,0c0.7-0.7,1.7-0.7,2.4,0l10.1,10.1
				c0.6,0.6,0.7,1.7,0,2.3l-10.2,10.2c-0.7,0.7-1.7,0.7-2.4,0s-0.7-1.7,0-2.4L664.2,686z"/>
		</g>
	</g>
</g>
</svg>
